<svg width="64" height="64" viewBox="0 0 64 64" fill="none" xmlns="http://www.w3.org/2000/svg">
<path d="M12.0452 21.0272C11.5538 21.1086 11.1878 21.3356 9.96772 22.3083C9.6051 22.5963 9.16114 22.9488 8.98491 23.0877C8.80868 23.2267 8.54095 23.4402 8.39183 23.5622C7.94788 23.918 6.98201 24.6941 6.86678 24.7856C6.5211 25.0601 6.31099 25.2736 6.34488 25.3143C6.38893 25.3685 6.60922 25.277 7.47341 24.8636C8.19188 24.5179 8.51384 24.3518 9.2052 23.9824C9.98806 23.5622 10.1372 23.4842 10.8997 23.064C11.7266 22.6133 11.9605 22.515 12.2248 22.515C12.5942 22.515 12.7942 22.7183 12.9772 23.2945C13.1229 23.7418 13.1974 24.2705 13.3567 25.9718C13.4753 27.2359 13.577 27.8222 13.6414 27.629C13.699 27.4629 13.9803 25.2092 14.0515 24.3281C14.082 23.9723 14.1193 23.5452 14.1362 23.3792C14.187 22.9149 14.1769 22.6912 14.0989 22.4133C13.9464 21.8575 13.6346 21.4475 13.1873 21.2136C12.8179 21.0171 12.4553 20.9594 12.0452 21.0272Z" fill="#C9A24D"/>
<path d="M36.1848 22.0981C35.7172 22.1049 35.4596 22.1219 35.4291 22.149C35.402 22.1693 35.385 22.2337 35.3918 22.2913C35.3986 22.3726 35.4359 22.4201 35.5714 22.5048C35.951 22.7556 35.9273 22.864 35.3037 23.6503C35.0021 24.0333 34.9275 24.1281 34.6666 24.4637C34.2429 25.0059 33.8261 25.5278 33.7922 25.5481C33.7481 25.5753 33.7481 25.1516 33.7922 23.8435C33.8261 22.7793 33.8397 22.7149 34.0159 22.5929C34.2463 22.4303 34.3006 22.3726 34.3006 22.2811C34.3006 22.1083 34.2938 22.1083 33.1788 22.1083C32.0333 22.1083 32.0503 22.1049 32.0706 22.3184C32.0808 22.4167 32.1045 22.4438 32.2773 22.5319C32.3858 22.5895 32.4908 22.6607 32.5112 22.6946C32.5315 22.7353 32.5315 23.1182 32.5078 23.8469C32.4841 24.4467 32.4535 25.4092 32.4366 25.9853C32.4027 27.1613 32.4061 27.1511 32.1452 27.2664C31.9215 27.3646 31.8605 27.5985 32.0401 27.6595C32.0808 27.673 32.5654 27.6764 33.1178 27.6663C34.2023 27.6493 34.2328 27.6425 34.2328 27.4629C34.2328 27.3579 34.1887 27.3138 34.0565 27.2799C33.8702 27.2359 33.7176 26.9207 33.7583 26.6767C33.782 26.5445 33.8295 26.4767 34.5039 25.6363C35.2461 24.7111 35.4935 24.3959 35.6324 24.2027C35.7104 24.0943 35.7849 24.0061 35.8019 24.0061C35.8324 24.0061 35.8324 24.057 35.7883 25.599C35.7646 26.3751 35.7341 26.9512 35.7104 27.019C35.6867 27.0935 35.6189 27.1749 35.5206 27.2426C35.3613 27.3545 35.3071 27.4867 35.3817 27.5782C35.4325 27.6392 37.4151 27.6866 37.5201 27.6324C37.6625 27.5578 37.5574 27.2596 37.3879 27.2596C37.2693 27.2596 37.1202 27.0834 37.0965 26.9071C37.0829 26.819 37.0965 25.8464 37.1236 24.7449C37.1812 22.4879 37.1575 22.6539 37.4557 22.4777C37.5845 22.4031 37.6048 22.376 37.6048 22.2778C37.6048 22.1151 37.5066 22.0744 37.1643 22.0812C37.0152 22.088 36.5746 22.0947 36.1848 22.0981Z" fill="#C9A24D"/>
<path d="M30.471 22.2134C29.9999 22.254 28.4308 22.3727 27.3023 22.4472C26.7634 22.4845 26.2822 22.5252 26.2381 22.5353L26.1602 22.5523L26.1839 23.186C26.1974 23.5351 26.2245 23.8469 26.2415 23.8842C26.272 23.9384 26.3025 23.9452 26.4923 23.9282C26.6109 23.9147 26.7363 23.8909 26.7702 23.874C26.8041 23.857 26.8752 23.735 26.9227 23.6063C27.1294 23.0844 27.2616 22.9725 27.7428 22.9318L27.9902 22.9115L28.0106 23.1623C28.0411 23.5114 28.1326 26.0735 28.1427 26.758C28.1495 27.3172 28.1495 27.324 28.0648 27.4121C28.0173 27.4629 27.9258 27.5239 27.8614 27.5511C27.797 27.5782 27.7327 27.6188 27.7191 27.6426C27.6784 27.707 27.6886 27.8493 27.7394 27.9205C27.7835 27.9815 27.8004 27.9815 28.424 27.9238C28.7765 27.8933 29.2577 27.8527 29.4983 27.8391C29.9626 27.8086 30.0304 27.7815 30.0304 27.6324C30.0304 27.5273 29.9525 27.4494 29.8135 27.4155C29.7593 27.4019 29.6746 27.3477 29.6237 27.2969C29.5458 27.2223 29.5254 27.1647 29.5085 26.9851C29.4848 26.7004 29.2848 23.1115 29.2848 22.9454V22.8132L29.6576 22.8268L30.027 22.837L30.166 22.9725C30.2439 23.0471 30.3625 23.2199 30.4269 23.3555C30.4947 23.491 30.5794 23.6164 30.6099 23.6368C30.6913 23.6774 30.8777 23.674 31.0098 23.63C31.1047 23.5961 31.1149 23.5791 31.1149 23.4538C31.1115 23.1759 31.0505 22.2913 31.0268 22.2337C31.003 22.1693 30.9793 22.1693 30.471 22.2134Z" fill="#C9A24D"/>
<path d="M40.5939 22.3083C40.1059 22.4167 39.7704 22.6065 39.384 22.9895C39.1265 23.2436 39.0282 23.369 38.9164 23.5825C38.6351 24.1383 38.5165 24.7721 38.5436 25.5753C38.5842 26.6835 38.9502 27.3647 39.6958 27.7341C40.1669 27.9645 40.9396 28.1035 41.4852 28.056C41.8106 28.0289 42.468 27.8832 42.5223 27.829C42.5799 27.7679 42.7154 26.6801 42.668 26.6326C42.651 26.6157 42.5155 26.5954 42.3698 26.5886L42.1054 26.575L41.9597 26.8326C41.7767 27.1647 41.6852 27.2732 41.5089 27.3579C41.1429 27.5341 40.6854 27.4595 40.394 27.1749C40.0686 26.8597 39.9161 26.3513 39.9161 25.582C39.9161 24.9788 39.9974 24.4027 40.1533 23.9282C40.4109 23.1487 40.821 22.7793 41.3768 22.8302C41.753 22.8641 41.9393 23.0132 42.1596 23.4537C42.2342 23.6062 42.3121 23.7418 42.3325 23.752C42.4104 23.7994 42.7697 23.7859 42.8239 23.735C42.8544 23.7011 42.8917 23.5317 42.9255 23.2436C43.0001 22.6031 43.0035 22.6234 42.8307 22.5489C42.7493 22.5116 42.4918 22.437 42.2613 22.3794C41.6987 22.2371 41.0413 22.21 40.5939 22.3083Z" fill="#C9A24D"/>
<path d="M6.50069 22.4811C5.66021 22.5556 4.72146 22.7624 4.125 23.0064C2.66772 23.5961 2.01026 24.3789 2.00009 25.538C1.99331 26.3445 2.37288 27.1511 3.44381 28.5982C4.04027 29.4014 4.51134 30.1673 4.74857 30.7096C5.22981 31.8246 5.37893 32.8548 5.61277 36.7996C5.67038 37.7282 5.72461 38.2806 5.83644 39.0872C5.97539 40.087 6.16179 40.6055 6.67353 41.4222C7.07343 42.0628 7.40894 42.5101 7.49367 42.5101C7.56484 42.5101 7.52756 42.3508 7.13782 41.0223C6.8667 40.0904 6.82264 39.6532 6.79214 37.4605C6.7752 36.3319 6.78536 35.749 6.83281 34.7662C6.99548 31.384 6.70742 30.3232 5.00275 28.0052C4.26733 27.0054 3.85726 26.3344 3.74882 25.9548C3.70476 25.8091 3.69459 25.6837 3.70815 25.4973C3.76237 24.7314 4.17922 24.3688 5.48738 23.9519C6.50408 23.6266 7.37844 23.2436 7.90374 22.9013C8.20536 22.7014 8.23247 22.6675 8.1308 22.6065C7.9444 22.4845 7.13443 22.4235 6.50069 22.4811Z" fill="#C9A24D"/>
<path d="M44.1153 22.5726C44.0882 22.6573 43.9594 23.4775 43.9357 23.7045C43.9188 23.8706 43.9255 23.9011 43.9798 23.9316C44.0679 23.9757 44.3526 24.0129 44.4305 23.9892C44.4644 23.979 44.5796 23.8333 44.6881 23.6639C44.9355 23.2843 45.0236 23.2267 45.3354 23.2301C45.4641 23.2301 45.6302 23.2402 45.7048 23.2538C45.8369 23.2775 45.8403 23.2843 45.8403 23.4131C45.8369 23.5385 45.6573 24.6433 45.5828 24.9788C45.5658 25.0567 45.4608 25.6464 45.3523 26.2903C45.1524 27.4358 45.1049 27.6798 45.0541 27.7544C45.0168 27.8052 44.8236 27.9035 44.7558 27.9035C44.5932 27.9035 44.4949 28.2255 44.6474 28.2594C44.7592 28.2831 45.5556 28.4254 46.2063 28.5373C46.8502 28.6457 46.8841 28.6389 46.9011 28.422C46.9113 28.2932 46.9045 28.2831 46.752 28.2051C46.6639 28.1611 46.5622 28.0831 46.5249 28.0323C46.4605 27.9442 46.4571 27.9238 46.4978 27.5917C46.5215 27.3986 46.5995 26.8902 46.674 26.4632C46.7452 26.0328 46.8841 25.2093 46.979 24.6263C47.0773 24.0468 47.1654 23.552 47.179 23.5317C47.2129 23.4775 47.5958 23.5486 47.789 23.6469C48.0059 23.7554 48.1008 23.9452 48.2126 24.4874C48.2262 24.5586 48.2601 24.5857 48.3584 24.6128C48.5312 24.6636 48.7888 24.6602 48.8294 24.606C48.8837 24.5416 49.0565 23.3284 49.0192 23.2911C48.9819 23.2538 49.0565 23.2674 46.9756 22.9352C45.3591 22.6811 44.2644 22.515 44.1797 22.515C44.1526 22.515 44.1255 22.5421 44.1153 22.5726Z" fill="#C9A24D"/>
<path d="M23.8693 22.7692C22.9678 22.9013 22.9576 22.9047 22.9136 22.9861C22.8593 23.0945 22.9237 23.203 23.1 23.2945C23.344 23.4199 23.3677 23.4944 23.4728 24.4094C23.5744 25.2736 23.5744 25.2567 23.3711 25.2601C23.3169 25.2601 22.9203 25.3211 22.4899 25.3956C22.0629 25.4668 21.7003 25.5177 21.6901 25.5041C21.6562 25.4634 21.4868 23.7791 21.5071 23.691C21.5207 23.6435 21.5885 23.5588 21.663 23.5012C21.7681 23.4131 21.7952 23.369 21.7952 23.2809C21.7952 23.0674 21.7816 23.0674 20.8022 23.2233C20.3142 23.3012 19.8635 23.3758 19.8025 23.386C19.6771 23.4063 19.6195 23.5046 19.6601 23.6164C19.6737 23.6537 19.7584 23.7215 19.8499 23.7689C19.9651 23.8265 20.0363 23.8909 20.0736 23.9757C20.1312 24.0909 20.3447 25.5075 20.4396 26.3954C20.4599 26.5987 20.5074 27.0156 20.5447 27.3172C20.6362 28.0967 20.6328 28.2763 20.5209 28.4119C20.4701 28.4695 20.3888 28.5373 20.3345 28.5678C20.2227 28.6254 20.1854 28.7338 20.2329 28.8626C20.2769 28.9778 20.3447 28.9778 20.7988 28.8863C20.9852 28.849 21.4021 28.7711 21.7274 28.7135C22.4323 28.5949 22.4289 28.5949 22.4561 28.5169C22.4933 28.4017 22.4154 28.2831 22.2561 28.2153C22.1748 28.178 22.0799 28.1102 22.0494 28.0628C21.985 27.9645 21.7376 26.1141 21.785 26.0734C21.8155 26.0463 23.039 25.8498 23.3948 25.8159C23.6151 25.7955 23.6219 25.7955 23.6388 25.8735C23.6761 26.0429 23.7947 27.3375 23.7947 27.5883V27.8459L23.6388 27.9984C23.5168 28.1136 23.4795 28.1712 23.4829 28.2492C23.4863 28.361 23.5439 28.4491 23.6015 28.4288C23.6253 28.4186 24.0828 28.3509 24.625 28.2729C25.1639 28.1984 25.6282 28.1204 25.6519 28.1001C25.679 28.0764 25.6926 28.012 25.6858 27.9408C25.6756 27.829 25.6621 27.8154 25.5197 27.768C25.3367 27.7103 25.2655 27.6561 25.2011 27.5273C25.1503 27.4291 24.7097 23.6876 24.7097 23.3555C24.7097 23.186 24.7165 23.1725 24.8826 23.02C25.0249 22.8912 25.052 22.8437 25.0419 22.7658C25.0317 22.6709 25.0249 22.6675 24.8284 22.6607C24.7165 22.6607 24.2861 22.7082 23.8693 22.7692Z" fill="#C9A24D"/>
<path d="M15.9322 24.1959C15.6441 24.2807 15.3967 24.3654 15.3865 24.3857C15.373 24.4061 15.3526 24.5145 15.3391 24.6297C15.295 25.0466 14.9934 26.8936 14.7426 28.2932C14.4918 29.7132 14.4444 29.8725 14.2139 30.0996C14.0445 30.269 14.0275 30.3741 14.1495 30.4961C14.2444 30.591 14.1292 30.6113 15.1188 30.3233C15.4069 30.2385 15.7051 30.1504 15.7797 30.1301C15.9017 30.0928 15.9152 30.0759 15.9254 29.9708C15.9389 29.8386 15.8712 29.7675 15.7356 29.7675C15.6068 29.7675 15.4238 29.6658 15.373 29.5607C15.3459 29.5099 15.3221 29.3777 15.3221 29.2693C15.3221 29.0388 15.4069 28.483 15.4509 28.439C15.4645 28.4254 15.5661 28.3814 15.6746 28.3441C15.905 28.2627 17.0743 27.9374 17.1386 27.9374C17.2064 27.9374 17.3047 28.1001 17.4877 28.5068C17.7351 29.0524 17.7351 29.0287 17.5284 29.2184C17.3488 29.3845 17.3183 29.4692 17.403 29.5845C17.4504 29.6488 17.4572 29.6488 17.8198 29.5506C18.0198 29.4963 18.5214 29.3676 18.9314 29.2625C19.6228 29.0863 19.677 29.0659 19.6872 28.9914C19.7109 28.8287 19.6668 28.7541 19.5143 28.7135C19.1619 28.6186 19.0467 28.4966 18.6806 27.8188C18.5993 27.6697 18.4434 27.4019 18.3384 27.2257C18.2333 27.0495 18.0706 26.7648 17.9825 26.5987C17.891 26.4293 17.6639 26.0328 17.4742 25.7176C17.2844 25.399 16.9895 24.8941 16.8167 24.5891C16.6405 24.2874 16.4913 24.04 16.4778 24.0434C16.4676 24.0434 16.2202 24.1146 15.9322 24.1959ZM16.0033 25.7515C16.0609 25.8633 16.2134 26.1311 16.3388 26.3446C16.6642 26.9004 16.9218 27.4019 16.898 27.4257C16.8675 27.4528 15.5119 27.8357 15.4984 27.8188C15.4848 27.8086 15.8237 25.6735 15.8508 25.5685C15.8712 25.5075 15.8712 25.5109 16.0033 25.7515Z" fill="#C9A24D"/>
<path d="M12.1195 24.7687C12.0449 24.7924 11.8077 24.8636 11.5942 24.9212C11.3807 24.9788 10.9367 25.1008 10.6114 25.1923C9.26592 25.5685 8.99819 25.6396 8.51356 25.7515C8.23228 25.8125 7.97132 25.8837 7.93404 25.904C7.79848 25.9752 7.87982 26.1548 8.06283 26.1921C8.42545 26.2666 8.46951 26.3039 8.64235 26.6902C9.14053 27.7951 9.4896 30.2284 9.30659 31.3501C9.18798 32.0788 9.00836 32.4244 8.46612 32.9565L8.134 33.2886L8.09672 33.7563C8.02216 34.7832 8.06283 41.8696 8.14416 41.9204C8.19839 41.9543 8.30345 41.8289 8.35428 41.6663C8.43901 41.4087 8.45934 41.2155 8.66268 38.9178C8.71013 38.3857 8.77113 37.7316 8.79824 37.4605C8.86263 36.8369 8.9338 36.0032 9.00158 35.139C9.10325 33.841 9.18459 33.5564 9.52688 33.248C9.78105 33.0209 9.99117 32.9294 11.967 32.2177C12.4821 32.0313 12.8278 31.994 13.1226 32.0889C13.6072 32.2448 14.058 32.6176 14.4172 33.1565C14.6002 33.4344 14.6443 33.4784 14.7324 33.4886C14.9425 33.5089 14.9391 33.4649 14.6985 32.6244C14.5799 32.2008 14.4613 31.7737 14.4375 31.6822C14.363 31.3671 14.3393 31.3433 14.0681 31.2959C13.8106 31.2552 13.614 31.1705 13.5191 31.0688C13.3531 30.8824 13.2073 30.4351 12.699 28.5305C12.2618 26.88 11.9941 25.765 11.9907 25.5549L11.9839 25.3516L12.2313 25.1279C12.4211 24.9551 12.4753 24.8839 12.4753 24.8093C12.4753 24.728 12.4618 24.7178 12.3669 24.7212C12.3059 24.7212 12.194 24.745 12.1195 24.7687ZM10.6351 26.1582C10.7198 26.4632 11.0519 27.6968 11.2722 28.5474C11.3536 28.8558 11.5128 29.4658 11.6281 29.903C11.9703 31.2112 12.0009 31.3332 12.0009 31.3908C12.0009 31.4484 11.7128 31.567 11.1875 31.7297C11.0655 31.767 10.6961 31.8822 10.364 31.9873C10.0318 32.0923 9.75055 32.1737 9.74038 32.1635C9.73022 32.1533 9.76411 31.9263 9.81494 31.6585C9.94033 31.0112 9.96745 30.0826 9.88272 29.3608C9.77427 28.4152 9.62177 27.5985 9.38793 26.7546C9.31337 26.4869 9.25914 26.2463 9.26931 26.2259C9.27609 26.2022 9.35065 26.1683 9.43198 26.1446C9.50993 26.1243 9.77766 26.0531 10.0183 25.9887C10.2623 25.9243 10.4826 25.8769 10.5097 25.8803C10.5402 25.8837 10.5876 25.9887 10.6351 26.1582Z" fill="#C9A24D"/>
<path d="M49.9071 24.9246C49.8935 24.9449 49.8833 25.0127 49.8799 25.0771C49.8765 25.172 49.9037 25.2228 50.0257 25.3448C50.1375 25.4601 50.1714 25.5177 50.168 25.599C50.1646 25.7244 50.0291 26.2632 49.7512 27.2427C49.4224 28.4017 49.3987 28.4458 49.07 28.5373C48.9141 28.5813 48.8598 28.6118 48.8361 28.6762C48.7785 28.8253 48.87 28.9067 49.1682 28.9677C49.3953 29.0185 49.8494 29.1371 50.6459 29.3574C50.7882 29.3947 50.856 29.4015 50.9 29.3744C51.0017 29.31 50.9881 29.1744 50.8594 28.988C50.7272 28.7948 50.7069 28.6593 50.7916 28.5339C50.839 28.4559 51.3304 28.0798 52.0082 27.5985C52.1777 27.4765 52.3742 27.3308 52.4454 27.2698C52.703 27.0563 52.7098 27.0088 52.3031 28.378C52.137 28.9372 52.1201 28.9846 52.0252 29.0863C51.9405 29.1744 51.7574 29.2591 51.6558 29.2591C51.5812 29.2591 51.5338 29.371 51.5575 29.4862C51.5711 29.5574 51.6659 29.5879 52.8148 29.903L53.5909 30.1132L53.6722 30.0352C53.7942 29.92 53.7739 29.8319 53.5841 29.6556C53.3808 29.4659 53.3706 29.4015 53.5028 28.9202C53.5502 28.744 53.6655 28.3 53.757 27.9374C53.9806 27.0698 54.106 26.6699 54.1908 26.5513C54.2314 26.4937 54.3399 26.4191 54.4483 26.3751C54.5805 26.3209 54.6415 26.2734 54.655 26.2192C54.6855 26.1006 54.6517 26.0497 54.5263 26.0226C54.4653 26.0091 54.0552 25.9006 53.618 25.782C52.7741 25.5516 52.6555 25.5346 52.6216 25.6193C52.5674 25.7583 52.6013 25.8905 52.7199 26.0057C52.93 26.209 52.886 26.3276 52.4929 26.6021C52.337 26.7106 52.015 26.9444 51.771 27.1241C51.1745 27.5646 51.0085 27.6765 50.9848 27.6527C50.9746 27.6426 51.0288 27.4155 51.1101 27.1512C51.5168 25.7854 51.5202 25.7718 51.7337 25.7007C51.8862 25.6498 51.9642 25.5583 51.9506 25.4397C51.9405 25.3448 51.9405 25.3448 51.0593 25.1178C50.1816 24.8941 49.9477 24.8534 49.9071 24.9246Z" fill="#C9A24D"/>
<path d="M57.0273 25.1076C56.9256 25.2092 56.929 25.294 57.0374 25.5075C57.1222 25.6803 57.1391 25.7413 57.1222 25.8531C57.095 26.0158 55.3633 29.476 55.1938 29.7064C55.0752 29.8691 54.9396 29.9369 54.7295 29.9369C54.6075 29.9369 54.533 30.0182 54.533 30.1538C54.533 30.2521 54.5533 30.2758 54.6956 30.3504C54.7837 30.3978 54.9837 30.4927 55.143 30.5571C55.3023 30.6215 55.5463 30.7299 55.6852 30.7943C56.5562 31.1942 56.5765 31.201 56.6341 31.0925C56.6918 30.9807 56.6714 30.8757 56.563 30.7164C56.4206 30.5096 56.441 30.4181 56.7663 29.7708C56.9087 29.4794 57.1018 29.0795 57.1933 28.8761C57.2848 28.6762 57.3662 28.5135 57.3797 28.5135C57.3899 28.5169 57.4814 28.5677 57.5831 28.6287C57.9118 28.8253 58.0575 29.0998 58.0575 29.5336C58.0575 29.6895 58.0135 30.2521 57.922 31.2891C57.9016 31.5026 57.8982 31.689 57.9118 31.7026C57.9728 31.7602 59.4843 32.5125 59.5453 32.5125C59.63 32.5125 59.6842 32.4414 59.708 32.299C59.7249 32.194 59.7114 32.1703 59.6165 32.1025C59.3962 31.9398 59.3962 31.9398 59.3962 30.6486C59.3962 29.5336 59.3928 29.4692 59.3216 29.2862C59.2233 29.0219 59.0742 28.8253 58.8675 28.683C58.7014 28.5711 58.698 28.5644 58.776 28.5339C59.1556 28.3847 59.5758 28.1441 59.9011 27.8899C60.3214 27.5578 60.5451 27.4629 60.7484 27.5307C60.9077 27.5815 60.9721 27.6663 61.0398 27.9103C61.0873 28.0865 61.1144 28.1272 61.2127 28.1814C61.3889 28.2763 61.5618 28.2627 61.6431 28.1475C61.7414 28.0119 62.0565 27.4019 62.0565 27.3511C62.0565 27.1511 61.1754 26.7783 60.7009 26.775C60.2977 26.775 59.9859 26.9342 59.3453 27.4731C58.5998 28.0967 58.166 28.2492 57.6915 28.0526L57.5797 28.0052L57.9423 27.3036C58.4744 26.27 58.4811 26.2598 58.7895 26.2225C58.9895 26.1954 59.1081 26.1277 59.1081 26.0395C59.1081 25.948 59.0505 25.9175 58.3117 25.5888C57.9592 25.4295 57.5492 25.2465 57.4034 25.1787C57.1018 25.0398 57.0984 25.0398 57.0273 25.1076Z" fill="#C9A24D"/>
<path d="M46.569 31.0892C46.3352 31.1027 46.1013 31.1332 46.0437 31.1536C45.715 31.2857 45.5523 31.5162 45.5523 31.8551C45.5523 32.1296 45.6845 32.3431 45.915 32.4516C46.0065 32.4956 46.0844 32.5329 46.0912 32.5363C46.1013 32.5431 46.0675 32.5905 46.02 32.6413C45.9014 32.7701 45.5625 33.2751 45.5354 33.3632C45.5184 33.4106 45.5286 33.4479 45.5557 33.4649C45.6099 33.4988 45.837 33.5055 45.9421 33.475C46.0098 33.4581 46.2098 33.1971 46.4301 32.8379C46.5555 32.6379 46.5589 32.6346 46.9113 32.5973L47.1011 32.5769L47.1214 32.987C47.1316 33.231 47.1553 33.4174 47.1791 33.4445C47.2062 33.475 47.2807 33.4954 47.3654 33.4954C47.64 33.4954 47.6196 33.5903 47.6196 32.2957C47.6196 31.4382 47.6095 31.1265 47.579 31.096C47.5349 31.0519 47.2773 31.0519 46.569 31.0892ZM47.1113 31.8348V32.2042L46.9893 32.2279C46.7961 32.2652 46.2911 32.2245 46.1725 32.1635C46.0268 32.0855 45.9726 31.9195 46.0403 31.7568C46.1285 31.5433 46.3216 31.4721 46.8334 31.4654L47.1113 31.462V31.8348Z" fill="#C9A24D"/>
<path d="M39.6147 31.1637C39.2554 31.2078 38.9436 31.4314 38.7843 31.7602C38.6962 31.9398 38.6895 31.9839 38.6895 32.377C38.6895 32.7735 38.6962 32.8142 38.7843 32.9904C38.964 33.353 39.2893 33.5631 39.7095 33.5902C40.3162 33.6275 40.7601 33.292 40.8957 32.6922C40.994 32.2414 40.9025 31.7602 40.6585 31.4755C40.4416 31.2213 40.0586 31.1061 39.6147 31.1637ZM40.1094 31.6077C40.2043 31.6585 40.2755 31.7398 40.3399 31.8652C40.4212 32.0211 40.4348 32.0855 40.4348 32.3228C40.4348 32.4719 40.4178 32.6583 40.3975 32.7328C40.3467 32.9192 40.0857 33.1734 39.9197 33.2039C39.6011 33.2615 39.2554 33.0175 39.1842 32.682C39.0792 32.1906 39.2283 31.7093 39.5333 31.5772C39.6994 31.506 39.9569 31.5196 40.1094 31.6077Z" fill="#C9A24D"/>
<path d="M44.6508 31.1468C44.6169 31.1705 44.3661 31.5331 43.7967 32.377C43.6781 32.5532 43.5629 32.7125 43.5459 32.7328C43.5222 32.7566 43.5154 32.6007 43.5222 32.2753C43.529 32.0042 43.5324 31.6416 43.5256 31.4687L43.5188 31.1569H43.3528C43.0579 31.1569 43.0783 31.1027 43.0816 31.95C43.085 32.36 43.0952 32.8752 43.1088 33.0887L43.1291 33.4784L43.3053 33.4886C43.4782 33.4987 43.4816 33.4987 43.6103 33.3361C43.6815 33.2446 43.9391 32.8684 44.1797 32.4956L44.6203 31.8246L44.6372 32.6515L44.6541 33.4784L44.8677 33.4886L45.0778 33.4987L45.071 32.3194L45.0608 31.14L44.8744 31.1298C44.7728 31.1264 44.6711 31.1332 44.6508 31.1468Z" fill="#C9A24D"/>
<path d="M41.4684 31.1874L41.3667 31.2078V32.3397V33.475L41.4785 33.5021C41.5361 33.5191 41.6378 33.5191 41.6988 33.5021L41.8073 33.475L41.8174 32.5193L41.8242 31.5636H42.2343C42.458 31.5636 42.6715 31.5467 42.7087 31.5297C42.7799 31.4891 42.7969 31.3298 42.7392 31.2213C42.7054 31.1603 42.6647 31.1569 42.136 31.1603C41.8242 31.1637 41.526 31.1739 41.4684 31.1874Z" fill="#C9A24D"/>
<path d="M30.0812 31.2281C29.5864 31.2722 29.2509 31.5229 29.2509 31.8483C29.2509 31.9567 29.2577 31.9669 29.3865 31.9872C29.539 32.0144 29.6576 31.9839 29.6576 31.9229C29.6576 31.8449 29.8915 31.6348 30.0236 31.6009C30.3117 31.5196 30.6133 31.5907 30.6743 31.75C30.6947 31.8008 30.7082 31.9059 30.7082 31.9872C30.7082 32.1635 30.7285 32.1533 30.1999 32.2245C29.478 32.3228 29.2645 32.4346 29.1662 32.7565C29.1018 32.9768 29.1018 33.0921 29.1662 33.2513C29.2713 33.4987 29.4373 33.6174 29.739 33.6512C29.9931 33.6817 30.2948 33.614 30.5252 33.475L30.7116 33.3632L30.7658 33.4818C30.8234 33.597 30.8268 33.6004 31.0064 33.5902L31.1928 33.5801L31.1861 32.7498C31.1827 32.2923 31.1725 31.8449 31.1589 31.7568C31.1352 31.5636 31.0369 31.4043 30.8878 31.3196C30.7557 31.2417 30.3964 31.201 30.0812 31.2281ZM30.6947 32.6718C30.6608 32.9667 30.6235 33.0311 30.4134 33.1564C30.2507 33.2581 30.1897 33.2751 30.0101 33.2751C29.7322 33.2751 29.6034 33.1903 29.6102 33.0107C29.6136 32.8582 29.6949 32.7328 29.8338 32.6617C29.9491 32.6007 30.4574 32.4854 30.6201 32.482L30.715 32.4786L30.6947 32.6718Z" fill="#C9A24D"/>
<path d="M34.1752 31.2722C33.9516 31.3772 33.7076 31.6212 33.6161 31.8279C33.5279 32.0313 33.4974 32.5024 33.5551 32.7531C33.6432 33.1395 33.8363 33.3767 34.1888 33.536C34.4159 33.6411 34.8937 33.6445 35.1174 33.5394C35.4698 33.3801 35.6834 33.0785 35.7579 32.6345C35.8359 32.2075 35.6867 31.6483 35.4461 31.445C35.2224 31.2586 35.0869 31.2111 34.7073 31.201C34.3854 31.1874 34.3345 31.1942 34.1752 31.2722ZM34.8971 31.5941C35.1614 31.7161 35.2834 31.9669 35.2834 32.4007C35.2834 32.9531 35.0632 33.2344 34.6328 33.2344C34.2667 33.2344 34.0499 33.0005 34.0092 32.5566C33.9719 32.1635 34.121 31.7466 34.3447 31.6246C34.5379 31.5229 34.7175 31.5128 34.8971 31.5941Z" fill="#C9A24D"/>
<path d="M36.3205 31.2315C36.3104 31.2552 36.2968 31.6551 36.2866 32.1194C36.2697 32.6752 36.2494 32.9938 36.2222 33.0514C36.1951 33.109 36.1409 33.1463 36.046 33.17C35.8833 33.2073 35.8596 33.2344 35.8596 33.4038C35.8596 33.5123 35.8732 33.536 35.9545 33.5665C36.0697 33.614 36.3815 33.5563 36.5035 33.4682C36.6899 33.3327 36.717 33.2073 36.7441 32.377C36.7577 31.9567 36.7713 31.6144 36.7713 31.611C36.7848 31.5907 37.5473 31.567 37.6388 31.5839L37.7575 31.6043V32.5498C37.7575 33.6241 37.7405 33.5631 38.0557 33.536L38.2319 33.5224L38.2251 32.3668L38.215 31.2078L37.2728 31.1976C36.5374 31.1908 36.3307 31.1976 36.3205 31.2315Z" fill="#C9A24D"/>
<path d="M19.9483 31.2722C19.8737 31.2959 19.7653 31.34 19.7077 31.3705C19.5653 31.445 19.3281 31.7094 19.2535 31.8788C19.1654 32.0788 19.1078 32.4617 19.1349 32.682C19.1891 33.109 19.3688 33.4005 19.7009 33.5835C19.8636 33.6716 19.9076 33.6818 20.2025 33.6818C20.4668 33.6818 20.5549 33.6682 20.704 33.6004C20.9819 33.475 21.2158 33.1531 21.2192 32.8989C21.2192 32.7769 21.1751 32.7498 20.9785 32.7498C20.8531 32.7498 20.8464 32.7566 20.7616 32.9362C20.6227 33.2242 20.3685 33.3632 20.1042 33.292C19.7382 33.1937 19.5687 32.8108 19.6602 32.2753C19.7178 31.9296 19.8568 31.7365 20.094 31.6551C20.3889 31.5602 20.6396 31.6619 20.782 31.9398C20.8464 32.0686 20.8531 32.072 20.9752 32.0517C21.1615 32.0178 21.2192 31.9771 21.2192 31.8822C21.2192 31.645 20.9616 31.3637 20.6634 31.2756C20.46 31.2146 20.1347 31.2146 19.9483 31.2722Z" fill="#C9A24D"/>
<path d="M24.2252 31.2721C23.7846 31.4314 23.5372 31.8076 23.4999 32.3837C23.483 32.6311 23.4932 32.7158 23.5576 32.9192C23.7338 33.4716 24.2387 33.7698 24.8149 33.6648C25.0894 33.6139 25.2588 33.5258 25.4418 33.3394C25.6689 33.1056 25.7401 32.8819 25.7435 32.4108C25.7435 32.0347 25.7401 32.0109 25.6316 31.7907C25.5062 31.5365 25.3164 31.367 25.0521 31.2755C24.8657 31.2111 24.4014 31.2111 24.2252 31.2721ZM24.9132 31.6585C25.1775 31.7907 25.3232 32.1838 25.2588 32.5905C25.2148 32.8582 25.1809 32.9463 25.0623 33.0853C24.8522 33.336 24.4421 33.3665 24.2082 33.1463C23.9371 32.8921 23.8829 32.2007 24.11 31.8618C24.276 31.6212 24.6488 31.5229 24.9132 31.6585Z" fill="#C9A24D"/>
<path d="M31.4878 31.2755C31.4404 31.3331 31.4709 31.567 31.5319 31.6043C31.5556 31.6178 31.7047 31.6314 31.8674 31.6314H32.1622L32.186 31.7568C32.1995 31.8279 32.2029 32.1567 32.1927 32.4956C32.1826 32.8311 32.1826 33.2106 32.1961 33.3428L32.2165 33.58H32.4198H32.6231L32.6401 32.6006L32.657 31.6212L32.9519 31.628C33.3382 31.6381 33.3924 31.6076 33.3789 31.4009L33.3687 31.2416L32.4503 31.2315C31.6641 31.2247 31.5251 31.2315 31.4878 31.2755Z" fill="#C9A24D"/>
<path d="M21.4834 31.2959C21.4157 31.3332 21.4055 31.445 21.4563 31.5772C21.4868 31.6619 21.497 31.6653 21.8122 31.6653H22.1341V32.6481C22.1341 33.7631 22.1138 33.6953 22.4154 33.6445L22.5917 33.614L22.6018 32.638L22.6086 31.6653H22.9238C23.0932 31.6653 23.2525 31.6518 23.2728 31.6382C23.3338 31.6009 23.3643 31.4077 23.3203 31.3298C23.2864 31.262 23.2593 31.2586 22.412 31.2586C21.8834 31.2586 21.5173 31.2756 21.4834 31.2959Z" fill="#C9A24D"/>
<path d="M26.1908 31.2823C26.1806 31.2993 26.1705 31.8279 26.1637 32.4617L26.1501 33.6139L26.3637 33.6241L26.5738 33.6343V32.8006C26.5738 32.3431 26.5839 31.9703 26.6009 31.9703C26.6144 31.9703 26.75 32.3397 26.9025 32.7904L27.1804 33.6139L27.3634 33.6241C27.5701 33.6343 27.5939 33.6173 27.6684 33.3937C27.6955 33.3089 27.7938 33.0514 27.8887 32.8175C27.9802 32.5837 28.092 32.2855 28.1361 32.1567L28.2174 31.9194L28.2276 32.7769L28.2344 33.6343L28.4479 33.6241L28.658 33.6139L28.6817 32.5634C28.6919 31.9838 28.6919 31.4585 28.6783 31.3941L28.6546 31.2755H28.3564H28.0582L27.8141 31.9364C27.6786 32.299 27.5396 32.6786 27.5057 32.7735C27.4685 32.8718 27.4312 32.9531 27.4176 32.9531C27.4041 32.9531 27.2855 32.6142 27.1499 32.1973C27.0143 31.7839 26.8822 31.4043 26.8584 31.3501C26.811 31.262 26.8008 31.2586 26.506 31.2586C26.3399 31.2586 26.1976 31.2688 26.1908 31.2823Z" fill="#C9A24D"/>
</svg>
