<svg width="51" height="51" viewBox="0 0 51 51" fill="none" xmlns="http://www.w3.org/2000/svg">
<g clip-path="url(#clip0_39_93)">
<path d="M12.4875 18.6143C12.1268 16.5618 11.9919 14.4713 12.0857 12.3854C12.0654 11.2934 12.285 10.2115 12.727 9.2265C13.1689 8.24147 13.8209 7.38071 14.6307 6.71326C15.4404 6.0458 16.3854 5.59021 17.3898 5.38302C18.3942 5.17583 19.4301 5.22281 20.4144 5.52019C20.6081 5.58106 20.7718 5.72053 20.8704 5.9087C20.9689 6.09687 20.9945 6.31877 20.9416 6.52683C20.8888 6.7349 20.7617 6.91259 20.5876 7.02181C20.4135 7.13104 20.2063 7.16311 20.0103 7.11115C13.3477 5.54429 12.9865 13.3014 13.998 18.3202C14.0357 18.5353 13.9918 18.7577 13.876 18.9383C13.7602 19.1189 13.582 19.2429 13.3805 19.2832C13.179 19.3235 12.9708 19.2767 12.8016 19.153C12.6325 19.0294 12.5162 18.8391 12.4785 18.6239L12.4875 18.6143ZM49.1148 42.1413C37.1488 53.0803 16.7818 52.1619 7.08929 48.5292L0.652486 47.4396C0.471002 47.4083 0.305829 47.3092 0.186352 47.16C0.0668751 47.0108 0.00084192 46.8212 0 46.6249L0 31.7831C0.000841833 31.6632 0.025957 31.5449 0.0736238 31.4364C0.121291 31.3278 0.190382 31.2315 0.276161 31.1541C0.36194 31.0767 0.462378 31.0201 0.57059 30.988C0.678802 30.9559 0.792229 30.9492 0.903094 30.9684L7.33764 32.0603C8.70583 32.0603 9.93178 32.0796 11.0494 32.111C8.32201 23.7343 4.19713 11.3706 10.4782 3.44711C15.2217 -2.16947 23.1395 -0.053005 27.8424 3.85691C29.9579 2.19845 38.4854 -3.69776 44.6738 3.47604C51.1558 12.1251 46.4642 25.8194 43.0934 34.5215C44.886 33.7429 46.0849 33.403 46.9316 34.0852C47.3322 34.3559 47.6417 34.7558 47.815 35.227C47.9884 35.6981 48.0166 36.216 47.8956 36.7055C48.2491 36.5568 48.6324 36.5071 49.009 36.5611C49.3856 36.6151 49.743 36.771 50.0472 37.014C52.3253 38.928 49.9208 41.6423 49.1148 42.1413ZM6.49776 33.5886L1.54655 32.7498V45.9186L6.49776 46.7599V33.5886ZM41.9939 36.8019C41.452 37.8649 40.8853 38.8822 40.2893 39.8344C42.2219 39.1112 43.7843 38.417 45.0305 37.8529C45.3868 37.7176 45.7027 37.4831 45.9457 37.1738C46.1886 36.8644 46.3497 36.4913 46.4123 36.0932C46.1526 34.4805 44.0462 35.9992 42.249 36.6886L41.9939 36.8019ZM12.7359 32.1785C15.5528 32.1482 18.3559 32.6024 21.0376 33.5235C25.1331 18.8505 32.0576 22.2422 34.8098 36.8067C35.3547 37.367 35.7423 38.0786 35.929 38.8614C36.1157 39.6441 36.094 40.467 35.8664 41.2373C36.5618 41.0517 37.221 40.8588 37.8442 40.6636C42.897 33.7477 50.483 13.5714 43.5359 4.59212C38.4244 -1.33301 31.4593 3.10482 29.1293 4.88139C30.1707 5.75351 31.1516 6.70495 32.0644 7.72825C32.7575 8.50445 31.5948 9.64223 30.9355 8.84674C30.8745 8.77684 24.7064 1.74285 18.2673 1.60063C11.6522 1.35958 8.10753 8.55025 8.80969 15.0684C9.26596 20.957 10.591 26.7316 12.7359 32.1785ZM27.5624 25.588C26.271 25.588 23.8868 28.553 22.4283 34.2515C24.2481 35.3556 24.9548 35.9992 32.3895 35.91C32.6248 35.9082 32.8598 35.9292 33.0916 35.9727C31.7099 29.1436 28.9803 25.588 27.5624 25.588ZM49.0448 38.2747C48.7107 37.9734 47.216 38.6532 45.6356 39.3715C41.7428 41.2221 37.6698 42.6061 33.4913 43.4984C29.4538 44.4758 25.2707 44.5513 21.2047 43.7202C21.0014 43.692 20.8169 43.5788 20.6918 43.4055C20.5666 43.2321 20.5112 43.0128 20.5375 42.7957C20.5638 42.5787 20.6699 42.3817 20.8322 42.2481C20.9946 42.1145 21.2 42.0553 21.4033 42.0834C28.4881 42.9536 33.866 43.0476 34.4734 40.3478C34.5536 40.0173 34.5616 39.6716 34.4969 39.3373C34.4322 39.003 34.2965 38.689 34.1001 38.4195C33.9038 38.15 33.6522 37.9323 33.3646 37.7831C33.077 37.6338 32.7612 37.5571 32.4414 37.5588C24.8667 37.6962 23.4895 36.8356 21.8955 35.8353C20.3445 34.871 18.5879 33.7622 8.03754 33.7116V47.119C11.5686 48.2641 32.385 54.1892 48.1891 40.8155C48.7152 40.3671 50.1556 39.1666 49.0448 38.2747ZM4.02103 37.2454C4.22581 37.2454 4.42221 37.1586 4.56702 37.004C4.71182 36.8494 4.79317 36.6397 4.79317 36.421C4.79317 36.2024 4.71182 35.9927 4.56702 35.8381C4.42221 35.6835 4.22581 35.5966 4.02103 35.5966C3.81624 35.5966 3.61984 35.6835 3.47504 35.8381C3.33023 35.9927 3.24888 36.2024 3.24888 36.421C3.24888 36.6397 3.33023 36.8494 3.47504 37.004C3.61984 37.1586 3.81624 37.2454 4.02103 37.2454Z" fill="white"/>
</g>
<defs>
<clipPath id="clip0_39_93">
<rect width="51" height="51" fill="white"/>
</clipPath>
</defs>
</svg>
