<svg width="51" height="51" viewBox="0 0 51 51" fill="none" xmlns="http://www.w3.org/2000/svg">
<g clip-path="url(#clip0_39_101)">
<path d="M13.4403 13.9265C13.1527 12.3935 13.0451 10.832 13.1197 9.27391C13.1053 8.4414 13.2854 7.61705 13.6455 6.86663C14.0056 6.11621 14.5358 5.4605 15.1938 4.95182C15.8518 4.44315 16.6193 4.09559 17.4352 3.93689C18.2511 3.77818 19.0927 3.81272 19.8929 4.03775C20.0908 4.09114 20.2594 4.2211 20.3617 4.39904C20.4639 4.57698 20.4914 4.78833 20.4382 4.98659C20.3849 5.18485 20.2551 5.35378 20.0775 5.45622C19.8999 5.55866 19.6889 5.58621 19.491 5.53282C14.4495 4.33405 14.1583 10.1379 14.9598 13.6438C14.9972 13.8456 14.953 14.0541 14.837 14.2234C14.721 14.3926 14.5426 14.5088 14.3411 14.5463C14.1396 14.5838 13.9315 14.5395 13.7626 14.4233C13.5937 14.3071 13.4777 14.1284 13.4403 13.9265ZM51 8.9369V41.9598C50.9994 42.7124 50.7007 43.4341 50.1694 43.9663C49.6382 44.4985 48.9178 44.7978 48.1665 44.7984H35.5458V49.4442H40.9644C41.1691 49.4442 41.3655 49.5257 41.5103 49.6708C41.6552 49.8158 41.7365 50.0126 41.7365 50.2178C41.7365 50.4229 41.6552 50.6197 41.5103 50.7647C41.3655 50.9098 41.1691 50.9913 40.9644 50.9913H10.0447C9.83988 50.9913 9.64348 50.9098 9.49868 50.7647C9.35387 50.6197 9.27252 50.4229 9.27252 50.2178C9.27252 50.0126 9.35387 49.8158 9.49868 49.6708C9.64348 49.5257 9.83988 49.4442 10.0447 49.4442H15.4632V44.8074H2.83346C2.08216 44.8068 1.36181 44.5076 0.830561 43.9754C0.299314 43.4432 0.000597928 42.7215 0 41.9688V8.9369C0.00298438 8.1858 0.302754 7.46646 0.833743 6.9362C1.36473 6.40594 2.08372 6.10792 2.83346 6.10733H9.89114C12.0992 -1.34317 20.6041 -1.35674 25.7088 2.75528C30.0279 -0.850091 38.6276 -1.94256 41.0569 6.10733H48.1665C48.9163 6.10792 49.6353 6.40594 50.1663 6.9362C50.6972 7.46646 50.997 8.1858 51 8.9369ZM17.8655 30.5872C17.9556 30.7064 18.0805 30.7946 18.2229 30.8396C18.3653 30.8846 18.5181 30.8841 18.6602 30.8383C18.8199 30.789 18.9605 30.6915 19.0627 30.5591C19.165 30.4267 19.2239 30.2659 19.2314 30.0987C19.8681 23.2498 22.6699 17.6767 25.5124 17.6767C28.3549 17.6767 31.1568 23.2476 31.7844 30.0964C31.7921 30.2639 31.851 30.4249 31.9532 30.5576C32.0554 30.6903 32.1959 30.7883 32.3556 30.8383C32.498 30.8836 32.6508 30.8835 32.7931 30.8381C32.9355 30.7928 33.0603 30.7043 33.1503 30.585C37.2734 24.9419 39.7017 18.2364 40.1493 11.2575C40.6596 1.6221 33.1052 -0.82295 27.0116 3.73466C27.78 4.34613 28.5049 5.01045 29.1812 5.72282C29.8744 6.45113 28.7139 7.51872 28.0524 6.77458C26.6977 5.14605 18.2673 -2.08506 12.9978 3.64419C7.47988 10.2488 13.7722 25.679 17.8655 30.5872ZM34.0015 44.8074H17.0008V49.4533H34.0015V44.8074ZM49.4557 38.6145H1.54655V41.9688C1.54655 42.3108 1.68213 42.6387 1.92348 42.8805C2.16482 43.1222 2.49215 43.2581 2.83346 43.2581H48.1665C48.5081 43.2581 48.8356 43.1223 49.0773 42.8806C49.319 42.6389 49.4551 42.311 49.4557 41.9688V38.6145ZM49.4557 8.9369C49.4551 8.59476 49.319 8.26684 49.0773 8.02512C48.8356 7.7834 48.5081 7.64765 48.1665 7.64765H41.452C42.0404 16.2203 39.5118 24.7165 34.3334 31.5666C34.0496 31.9244 33.6643 32.1876 33.2282 32.3216C32.7921 32.4557 32.3258 32.4543 31.8905 32.3176C31.4389 32.1754 31.0399 31.9014 30.7447 31.5307C30.4494 31.16 30.2714 30.7094 30.2333 30.2367C29.5763 23.1119 26.7655 19.226 25.5124 19.226C24.2594 19.226 21.4191 23.1119 20.7712 30.2412C20.7324 30.7134 20.5541 31.1634 20.2589 31.5336C19.9637 31.9038 19.5651 32.1775 19.114 32.3198C18.6787 32.4565 18.2124 32.4579 17.7763 32.3239C17.3402 32.1898 16.9549 31.9266 16.6711 31.5689C11.5066 24.7092 8.96741 16.2223 9.5141 7.64765H2.83346C2.49215 7.64765 2.16482 7.78348 1.92348 8.02526C1.68213 8.26704 1.54655 8.59497 1.54655 8.9369V37.0674H49.4557V8.9369Z" fill="white"/>
</g>
<defs>
<clipPath id="clip0_39_101">
<rect width="51" height="51" fill="white"/>
</clipPath>
</defs>
</svg>
