<svg width="51" height="51" viewBox="0 0 51 51" fill="none" xmlns="http://www.w3.org/2000/svg">
<g clip-path="url(#clip0_39_97)">
<path d="M43.5205 34.4903L36.6596 33.3047C35.7563 33.1484 34.9177 32.7335 34.2454 32.1102C33.573 31.487 33.0957 30.6822 32.8712 29.7932L32.3023 27.5349C34.3191 25.8219 35.8874 23.6423 36.871 21.1855C37.8546 18.7286 38.2238 16.0687 37.9464 13.4368C38.0666 13.5076 38.2031 13.546 38.3426 13.5483C38.482 13.5506 38.6197 13.5166 38.7421 13.4497C38.8645 13.3828 38.9675 13.2852 39.0409 13.1666C39.1143 13.0479 39.1557 12.9123 39.161 12.7728V2.82305C39.1611 2.66677 39.1139 2.51412 39.0257 2.38514C38.9375 2.25617 38.8123 2.15692 38.6666 2.10042C30.1169 -0.700791 20.8968 -0.700791 12.3471 2.10042C12.2016 2.15718 12.0766 2.2565 11.9884 2.38541C11.9002 2.51433 11.8529 2.66684 11.8527 2.82305V12.7593C11.8577 12.8991 11.8991 13.0351 11.9726 13.154C12.0462 13.273 12.1494 13.3708 12.2722 13.4377C12.3949 13.5047 12.533 13.5386 12.6728 13.536C12.8126 13.5335 12.9493 13.4946 13.0695 13.4232C12.7929 16.0544 13.1625 18.7134 14.146 21.1694C15.1296 23.6255 16.6975 25.8043 18.7136 27.5169L18.1424 29.7751C17.9178 30.6644 17.4401 31.4695 16.7674 32.0927C16.0946 32.716 15.2555 33.1307 14.3519 33.2867L7.49316 34.4722C5.39209 34.828 3.48555 35.9184 2.11327 37.5491C0.740982 39.1798 -0.00790015 41.2449 6.28554e-05 43.3765V50.2279C0.0107575 50.4258 0.0968864 50.6121 0.240724 50.7484C0.384561 50.8847 0.575163 50.9607 0.773303 50.9607C0.971443 50.9607 1.16205 50.8847 1.30588 50.7484C1.44972 50.6121 1.53585 50.4258 1.54654 50.2279V43.3765C1.54227 41.6142 2.16247 39.9075 3.29703 38.5593C4.43158 37.2111 6.00707 36.3087 7.74375 36.0123C8.47297 35.8475 15.1443 34.8381 15.6658 34.5355L24.7325 41.0369V50.2279C24.7325 50.4328 24.8138 50.6292 24.9586 50.7741C25.1034 50.9189 25.2998 51.0003 25.5046 51.0003C25.7094 51.0003 25.9057 50.9189 26.0505 50.7741C26.1953 50.6292 26.2767 50.4328 26.2767 50.2279V41.0392L35.3366 34.5355C35.8287 34.8539 42.5475 35.8362 43.2564 36.0123C44.9935 36.3082 46.5695 37.2104 47.7045 38.5587C48.8395 39.9069 49.46 41.6139 49.4558 43.3765V50.2279C49.4558 50.4328 49.5372 50.6292 49.682 50.7741C49.8268 50.9189 50.0232 51.0003 50.228 51.0003C50.4327 51.0003 50.6291 50.9189 50.7739 50.7741C50.9187 50.6292 51.0001 50.4328 51.0001 50.2279V43.3765C51.0038 41.2501 50.2548 39.1912 48.8856 37.5646C47.5165 35.938 45.6158 34.8489 43.5205 34.4903ZM13.3991 3.36051C21.2853 0.921682 29.7239 0.921682 37.61 3.36051V11.6708C36.2218 11.2226 34.8034 10.874 33.3657 10.6275C33.1319 9.60248 32.5744 8.67995 31.7757 7.99645C30.977 7.31295 29.9796 6.90478 28.931 6.83234C27.8824 6.75989 26.8383 7.02703 25.9533 7.59422C25.0682 8.1614 24.3893 8.99851 24.0168 9.98166C20.4182 10.0449 16.8463 10.6135 13.4059 11.6708L13.3991 3.36051ZM31.9388 11.6731C31.9388 12.5613 31.5861 13.4131 30.9582 14.0412C30.3303 14.6692 29.4787 15.022 28.5908 15.022C27.7028 15.022 26.8512 14.6692 26.2233 14.0412C25.5954 13.4131 25.2427 12.5613 25.2427 11.6731C25.2427 10.7849 25.5954 9.93306 26.2233 9.30501C26.8512 8.67695 27.7028 8.32412 28.5908 8.32412C29.4787 8.32412 30.3303 8.67695 30.9582 9.30501C31.5861 9.93306 31.9388 10.7849 31.9388 11.6731ZM14.537 14.8911C14.5415 14.2218 14.5958 13.5538 14.6995 12.8925C17.6367 12.076 20.6624 11.621 23.7098 11.5376C23.6862 12.7888 24.1441 14.0012 24.9888 14.9243C25.8335 15.8474 27.0005 16.4107 28.2486 16.4977C29.4966 16.5846 30.7304 16.1887 31.6949 15.3917C32.6594 14.5946 33.281 13.4574 33.4311 12.2151C34.4313 12.407 35.4066 12.6238 36.3164 12.8925C38.0706 31.6811 15.4536 34.4677 14.537 14.8911ZM25.5114 39.691L17.1965 33.7338C17.998 33.0855 18.6638 32.2855 19.1557 31.3795C19.6477 30.4736 19.9563 29.4794 20.0637 28.454C21.7072 29.437 23.5863 29.9562 25.5012 29.9562C27.4161 29.9562 29.2952 29.437 30.9387 28.454C31.0451 29.4798 31.3529 30.4744 31.8445 31.3808C32.3362 32.2873 33.002 33.0877 33.8036 33.736L25.5114 39.691ZM40.9604 44.815H34.7677C34.5629 44.815 34.3665 44.7336 34.2217 44.5887C34.0769 44.4439 33.9955 44.2475 33.9955 44.0426C33.9955 43.8378 34.0769 43.6414 34.2217 43.4965C34.3665 43.3517 34.5629 43.2703 34.7677 43.2703H40.9491C41.1538 43.2694 41.3506 43.3499 41.496 43.4941C41.6415 43.6383 41.7237 43.8344 41.7246 44.0392C41.7255 44.2441 41.645 44.4409 41.5008 44.5864C41.3567 44.7318 41.1606 44.8141 40.9558 44.815H40.9604Z" fill="white"/>
</g>
<defs>
<clipPath id="clip0_39_97">
<rect width="51" height="51" fill="white"/>
</clipPath>
</defs>
</svg>
