<svg width="157" height="56" viewBox="0 0 157 56" fill="none" xmlns="http://www.w3.org/2000/svg">
<path d="M26.1517 0.0708542C24.8723 0.282606 23.9194 0.873749 20.7432 3.40596C19.7991 4.15591 18.6433 5.07351 18.1845 5.43525C17.7257 5.797 17.0287 6.35285 16.6405 6.67048C15.4846 7.59689 12.9701 9.61736 12.6701 9.85559C11.7701 10.5703 11.2231 11.1261 11.3114 11.232C11.426 11.3731 11.9995 11.1349 14.2494 10.0585C16.1199 9.15857 16.9581 8.72624 18.758 7.76453C20.7961 6.67048 21.1843 6.46755 23.1695 5.37349C25.3223 4.20003 25.9311 3.94416 26.6193 3.94416C27.581 3.94416 28.1016 4.47354 28.578 5.97346C28.9574 7.1381 29.1515 8.51449 29.5662 12.9436C29.875 16.2346 30.1397 17.761 30.3073 17.2581C30.4573 16.8258 31.1896 10.9585 31.3749 8.66448C31.4543 7.73806 31.5514 6.62636 31.5955 6.19403C31.7278 4.98528 31.7014 4.40296 31.4984 3.67947C31.1014 2.23249 30.2897 1.16491 29.125 0.55612C28.1633 0.044384 27.2193 -0.105606 26.1517 0.0708542Z" fill="white"/>
<path d="M88.9981 2.85878C87.7805 2.87643 87.1099 2.92054 87.0305 2.99113C86.9599 3.04407 86.9158 3.2117 86.9335 3.36169C86.9511 3.57345 87.0482 3.69697 87.4011 3.91754C88.3893 4.57045 88.3275 4.85279 86.7041 6.89973C85.9188 7.89673 85.7247 8.14377 85.0453 9.01725C83.9425 10.4289 82.8572 11.7877 82.769 11.8406C82.6543 11.9112 82.6543 10.8083 82.769 7.40264C82.8572 4.63221 82.8925 4.46457 83.3513 4.14694C83.9513 3.72344 84.0925 3.57345 84.0925 3.33523C84.0925 2.88525 84.0748 2.88525 81.172 2.88525C78.1899 2.88525 78.234 2.87643 78.2869 3.43228C78.3134 3.68815 78.3751 3.75873 78.8251 3.98813C79.1074 4.13812 79.381 4.3234 79.4339 4.41163C79.4868 4.51751 79.4868 5.51451 79.4251 7.41146C79.3633 8.97314 79.2839 11.4789 79.2398 12.9788C79.1516 16.0404 79.1604 16.0139 78.481 16.3139C77.8987 16.5698 77.7399 17.1785 78.2075 17.3374C78.3134 17.3727 79.5751 17.3815 81.0132 17.355C83.8366 17.3109 83.916 17.2932 83.916 16.8256C83.916 16.5521 83.8013 16.4374 83.4572 16.3492C82.9719 16.2345 82.5749 15.4139 82.6808 14.7787C82.7425 14.4346 82.8661 14.2581 84.6218 12.07C86.5541 9.66133 87.1982 8.84079 87.5599 8.33788C87.7628 8.05554 87.9569 7.82614 88.0011 7.82614C88.0805 7.82614 88.0805 7.95849 87.9658 11.973C87.904 13.9934 87.8246 15.4934 87.7628 15.6698C87.7011 15.8639 87.5246 16.0757 87.2687 16.2521C86.8541 16.5433 86.7129 16.8874 86.907 17.1256C87.0393 17.2844 92.2008 17.4079 92.4743 17.2668C92.8449 17.0727 92.5714 16.2962 92.1302 16.2962C91.8214 16.2962 91.4332 15.8374 91.3714 15.3787C91.3362 15.1493 91.3714 12.617 91.442 9.74956C91.592 3.87343 91.5303 4.30576 92.3067 3.84696C92.642 3.65285 92.6949 3.58227 92.6949 3.3264C92.6949 2.9029 92.439 2.79702 91.5479 2.81467C91.1597 2.83231 90.0127 2.84996 88.9981 2.85878Z" fill="white"/>
<path d="M74.1225 3.15904C72.8961 3.26491 68.811 3.57372 65.8729 3.76783C64.4701 3.86488 63.2172 3.97075 63.1025 3.99722L62.8996 4.04134L62.9613 5.69124C62.9966 6.60002 63.0672 7.41173 63.1113 7.50879C63.1907 7.64996 63.2701 7.6676 63.7642 7.62349C64.073 7.58819 64.3995 7.52643 64.4877 7.48232C64.5759 7.4382 64.7612 7.12057 64.8847 6.7853C65.423 5.42655 65.767 5.13539 67.0199 5.02952L67.664 4.97658L67.7169 5.62948C67.7963 6.53825 68.0346 13.2085 68.061 14.9907C68.0787 16.4465 68.0787 16.4642 67.8581 16.6936C67.7346 16.8259 67.4964 16.9847 67.3287 17.0553C67.1611 17.1259 66.9934 17.2318 66.9582 17.2935C66.8523 17.4612 66.8788 17.8317 67.0111 18.017C67.1258 18.1758 67.1699 18.1758 68.7933 18.0258C69.7109 17.9464 70.9638 17.8405 71.5902 17.8053C72.799 17.7258 72.9755 17.6553 72.9755 17.2671C72.9755 16.9935 72.7725 16.7906 72.4108 16.7024C72.2696 16.6671 72.049 16.5259 71.9167 16.3936C71.7138 16.1995 71.6608 16.0495 71.6167 15.5819C71.555 14.8407 71.0344 5.49714 71.0344 5.06481V4.72071L72.0049 4.756L72.9666 4.78247L73.3284 5.13539C73.5313 5.3295 73.8401 5.77947 74.0078 6.1324C74.1842 6.48532 74.4048 6.81177 74.4842 6.86471C74.6959 6.97058 75.1812 6.96176 75.5253 6.84706C75.7724 6.75883 75.7988 6.71472 75.7988 6.38826C75.79 5.66477 75.6312 3.36197 75.5694 3.21198C75.5077 3.04434 75.4459 3.04434 74.1225 3.15904Z" fill="white"/>
<path d="M100.477 3.40612C99.2063 3.68845 98.3328 4.18254 97.327 5.17954C96.6565 5.84127 96.4006 6.16772 96.1094 6.72357C95.3771 8.17055 95.0683 9.82045 95.1389 11.9115C95.2448 14.7966 96.1977 16.5701 98.1387 17.5318C99.3651 18.1317 101.377 18.4935 102.797 18.37C103.644 18.2994 105.356 17.92 105.497 17.7788C105.647 17.62 106 14.7878 105.877 14.6643C105.832 14.6202 105.479 14.5672 105.1 14.5496L104.412 14.5143L104.033 15.1849C103.556 16.0495 103.318 16.3318 102.859 16.5524C101.906 17.0112 100.715 16.8171 99.9563 16.076C99.1093 15.2554 98.7122 13.932 98.7122 11.9292C98.7122 10.3587 98.924 8.85874 99.3298 7.62352C100 5.59422 101.068 4.63252 102.515 4.76486C103.494 4.85309 103.98 5.2413 104.553 6.3883C104.747 6.78533 104.95 7.13825 105.003 7.16472C105.206 7.28825 106.141 7.25295 106.282 7.12061C106.362 7.03238 106.459 6.59123 106.547 5.84127C106.741 4.17372 106.75 4.22666 106.3 4.03255C106.088 3.9355 105.418 3.74139 104.818 3.5914C103.353 3.22083 101.641 3.15025 100.477 3.40612Z" fill="white"/>
<path d="M11.7172 3.85596C9.5291 4.05007 7.08512 4.58828 5.53227 5.22353C1.73837 6.75874 0.0267007 8.79686 0.000231652 11.8143C-0.0174144 13.9142 0.970764 16.0141 3.75884 19.7815C5.31169 21.8726 6.53809 23.8666 7.1557 25.2783C8.40857 28.181 8.79679 30.8632 9.40557 41.1332C9.55557 43.5508 9.69673 44.9889 9.98789 47.0888C10.3496 49.6916 10.8349 51.0415 12.1672 53.1678C13.2083 54.8354 14.0818 56 14.3024 56C14.4876 56 14.3906 55.5854 13.3759 52.1267C12.6701 49.7004 12.5554 48.5622 12.476 42.8537C12.4319 39.9157 12.4583 38.3981 12.5819 35.8394C13.0054 27.034 12.2554 24.2724 7.81743 18.2375C5.90283 15.6347 4.83525 13.8877 4.55291 12.8996C4.43821 12.5202 4.41174 12.1937 4.44704 11.7085C4.5882 9.71445 5.67344 8.77039 9.07912 7.68516C11.726 6.83815 14.0024 5.84114 15.3699 4.95002C16.1552 4.42946 16.2258 4.34123 15.9611 4.18242C15.4758 3.86479 13.3671 3.70597 11.7172 3.85596Z" fill="white"/>
<path d="M109.644 4.09402C109.573 4.31459 109.238 6.44976 109.176 7.0409C109.132 7.47323 109.15 7.55264 109.291 7.63205C109.52 7.74675 110.262 7.8438 110.465 7.78204C110.553 7.75557 110.853 7.37618 111.135 6.93503C111.779 5.94685 112.009 5.79686 112.82 5.80568C113.156 5.80568 113.588 5.83215 113.782 5.86744C114.126 5.9292 114.135 5.94685 114.135 6.28212C114.126 6.60858 113.658 9.48488 113.464 10.3584C113.42 10.5613 113.147 12.0965 112.864 13.7729C112.344 16.7551 112.22 17.3903 112.088 17.5844C111.991 17.7168 111.488 17.9726 111.312 17.9726C110.888 17.9726 110.632 18.8108 111.029 18.899C111.32 18.9608 113.394 19.3314 115.088 19.6225C116.764 19.9049 116.852 19.8872 116.896 19.3226C116.923 18.9873 116.905 18.9608 116.508 18.7579C116.279 18.6432 116.014 18.4403 115.917 18.3079C115.75 18.0785 115.741 18.0256 115.847 17.1609C115.908 16.658 116.111 15.3345 116.305 14.2228C116.491 13.1023 116.852 10.9583 117.099 9.44077C117.355 7.93203 117.585 6.64387 117.62 6.59093C117.708 6.44976 118.705 6.63505 119.208 6.89091C119.773 7.17325 120.02 7.66734 120.311 9.07902C120.346 9.26431 120.435 9.33489 120.69 9.40547C121.14 9.53782 121.811 9.529 121.917 9.38783C122.058 9.22019 122.508 6.06155 122.411 5.9645C122.314 5.86744 122.508 5.90273 117.091 5.03808C112.882 4.37635 110.032 3.94402 109.812 3.94402C109.741 3.94402 109.67 4.01461 109.644 4.09402Z" fill="white"/>
<path d="M56.9352 4.606C54.5883 4.95009 54.5618 4.95892 54.4471 5.17067C54.306 5.453 54.4736 5.73534 54.9324 5.97356C55.5676 6.30002 55.6294 6.49412 55.9029 8.87634C56.1676 11.1262 56.1676 11.0821 55.6382 11.0909C55.4971 11.0909 54.4648 11.2497 53.3442 11.4438C52.2325 11.6291 51.2885 11.7615 51.262 11.7262C51.1738 11.6203 50.7326 7.23526 50.7856 7.00586C50.8209 6.88233 50.9973 6.66176 51.1914 6.51177C51.4649 6.28237 51.5355 6.16767 51.5355 5.93827C51.5355 5.38242 51.5002 5.38242 48.9504 5.78828C47.6799 5.99121 46.5064 6.18532 46.3476 6.21179C46.0211 6.26472 45.8711 6.52059 45.977 6.81175C46.0123 6.9088 46.2329 7.08526 46.4711 7.20879C46.7711 7.35878 46.9564 7.52641 47.0534 7.74699C47.2034 8.04697 47.7593 11.735 48.0063 14.0466C48.0593 14.576 48.1828 15.6612 48.2798 16.4465C48.518 18.4758 48.5092 18.9434 48.2181 19.2963C48.0857 19.4463 47.874 19.6228 47.7328 19.7022C47.4416 19.8522 47.3446 20.1345 47.4681 20.4698C47.5828 20.7698 47.7593 20.7698 48.9416 20.5316C49.4268 20.4345 50.5121 20.2316 51.3591 20.0816C53.1943 19.7728 53.1854 19.7728 53.256 19.5698C53.3531 19.2699 53.1501 18.9611 52.7355 18.7846C52.5237 18.6875 52.2767 18.5111 52.1972 18.3876C52.0296 18.1317 51.3855 13.3143 51.5091 13.2084C51.5885 13.1379 54.7736 12.6261 55.7 12.5379C56.2735 12.485 56.2911 12.485 56.3352 12.6879C56.4323 13.129 56.7411 16.4994 56.7411 17.1523V17.8229L56.3352 18.2199C56.0176 18.5199 55.9206 18.6699 55.9294 18.8728C55.9382 19.164 56.0882 19.3934 56.2382 19.3404C56.3 19.314 57.4911 19.1375 58.9027 18.9346C60.3056 18.7405 61.5144 18.5375 61.5761 18.4846C61.6467 18.4228 61.682 18.2552 61.6644 18.0699C61.6379 17.7788 61.6026 17.7435 61.232 17.62C60.7556 17.47 60.5703 17.3288 60.4027 16.9935C60.2703 16.7377 59.1233 6.99703 59.1233 6.13238C59.1233 5.69123 59.141 5.65593 59.5733 5.2589C59.9439 4.92362 60.0144 4.8001 59.988 4.59717C59.9615 4.35013 59.9439 4.3413 59.4321 4.32366C59.141 4.32366 58.0204 4.44718 56.9352 4.606Z" fill="white"/>
<path d="M36.2717 8.32038C35.5217 8.54096 34.8776 8.76153 34.8512 8.81447C34.8159 8.86741 34.7629 9.14975 34.7277 9.44973C34.613 10.535 33.8277 15.3435 33.1748 18.9874C32.5219 22.6843 32.3984 23.0989 31.7984 23.6901C31.3573 24.1312 31.3131 24.4048 31.6308 24.7224C31.8778 24.9694 31.5778 25.0224 34.1542 24.2724C34.9041 24.0518 35.6805 23.8224 35.8746 23.7695C36.1923 23.6724 36.2276 23.6283 36.254 23.3548C36.2893 23.0107 36.1129 22.8254 35.76 22.8254C35.4247 22.8254 34.9482 22.5607 34.8159 22.2872C34.7453 22.1549 34.6835 21.8108 34.6835 21.5284C34.6835 20.9285 34.9041 19.4815 35.0188 19.3668C35.0541 19.3315 35.3188 19.2168 35.6011 19.1198C36.2011 18.908 39.245 18.061 39.4127 18.061C39.5891 18.061 39.845 18.4845 40.3215 19.5433C40.9655 20.9638 40.9655 20.902 40.4273 21.3961C39.9597 21.8284 39.8803 22.049 40.1009 22.349C40.2244 22.5166 40.242 22.5166 41.1861 22.2608C41.7067 22.1196 43.0125 21.7843 44.0801 21.5108C45.88 21.052 46.0211 20.9991 46.0476 20.805C46.1094 20.3815 45.9947 20.1873 45.5976 20.0815C44.68 19.8344 44.38 19.5168 43.4272 17.7522C43.2154 17.364 42.8095 16.667 42.536 16.2082C42.2625 15.7494 41.839 15.0082 41.6096 14.5759C41.3714 14.1348 40.7803 13.1025 40.2862 12.2819C39.7921 11.4526 39.0245 10.1379 38.5745 9.34385C38.1157 8.5586 37.7275 7.91452 37.6922 7.92335C37.6657 7.92335 37.0216 8.10863 36.2717 8.32038ZM36.457 12.3701C36.607 12.6613 37.004 13.3583 37.3304 13.9142C38.1775 15.3612 38.848 16.667 38.7862 16.7287C38.7068 16.7993 35.1776 17.7963 35.1423 17.7522C35.107 17.7257 35.9893 12.1672 36.0599 11.8937C36.1129 11.7349 36.1129 11.7437 36.457 12.3701Z" fill="white"/>
<path d="M26.3458 9.81148C26.1517 9.87324 25.5341 10.0585 24.9782 10.2085C24.4224 10.3585 23.2666 10.6761 22.4196 10.9144C18.9168 11.8937 18.2198 12.079 16.9581 12.3702C16.2258 12.529 15.5464 12.7143 15.4494 12.7672C15.0964 12.9525 15.3082 13.4201 15.7846 13.5171C16.7287 13.7113 16.8434 13.8083 17.2934 14.8141C18.5904 17.6904 19.4991 24.0254 19.0227 26.9458C18.7139 28.8427 18.2463 29.7427 16.8346 31.1279L15.9699 31.9926L15.8729 33.2101C15.6788 35.8835 15.7846 54.3325 15.9964 54.4648C16.1376 54.553 16.4111 54.2266 16.5434 53.8031C16.764 53.1325 16.8169 52.6296 17.3463 46.6476C17.4698 45.2624 17.6287 43.5595 17.6992 42.8537C17.8669 41.2303 18.0522 39.0598 18.2286 36.8099C18.4933 33.4307 18.7051 32.6896 19.5962 31.8867C20.2579 31.2955 20.8049 31.0573 25.9488 29.2045C27.2899 28.7192 28.1898 28.6222 28.9574 28.8692C30.2191 29.2751 31.3926 30.2456 32.3278 31.6485C32.8043 32.3719 32.919 32.4866 33.1484 32.5131C33.6954 32.5661 33.6866 32.4514 33.0601 30.2632C32.7513 29.1604 32.4425 28.0487 32.3808 27.8104C32.1866 26.9899 32.1249 26.9281 31.419 26.8046C30.7485 26.6987 30.2368 26.4782 29.9897 26.2135C29.5574 25.7282 29.178 24.5636 27.8545 19.605C26.7164 15.3082 26.0194 12.4054 26.0105 11.8584L25.9929 11.329L26.637 10.7467C27.1311 10.2967 27.2722 10.1115 27.2722 9.91735C27.2722 9.7056 27.2369 9.67913 26.9899 9.68795C26.8311 9.68795 26.5399 9.74972 26.3458 9.81148ZM22.4813 13.4289C22.7019 14.223 23.5666 17.4346 24.14 19.6491C24.3518 20.452 24.7665 22.0402 25.0665 23.1784C25.9576 26.584 26.037 26.9017 26.037 27.0517C26.037 27.2017 25.287 27.5105 23.9195 27.934C23.6018 28.031 22.6401 28.331 21.7755 28.6045C20.9108 28.878 20.1785 29.0898 20.152 29.0633C20.1256 29.0368 20.2138 28.4457 20.3461 27.7487C20.6726 26.0635 20.7432 23.646 20.5226 21.7667C20.2403 19.305 19.8432 17.1787 19.2344 14.9818C19.0403 14.2848 18.8992 13.6583 18.9256 13.6054C18.9433 13.5436 19.1374 13.4554 19.3491 13.3936C19.5521 13.3407 20.2491 13.1554 20.8755 12.9878C21.5108 12.8201 22.0843 12.6966 22.1549 12.7054C22.2343 12.7143 22.3578 12.9878 22.4813 13.4289Z" fill="white"/>
<path d="M124.723 10.2173C124.687 10.2703 124.661 10.4467 124.652 10.6144C124.643 10.8614 124.714 10.9938 125.031 11.3114C125.323 11.6114 125.411 11.7614 125.402 11.9731C125.393 12.2996 125.04 13.7024 124.317 16.2523C123.461 19.2698 123.399 19.3845 122.543 19.6227C122.137 19.7374 121.996 19.8168 121.934 19.9844C121.784 20.3726 122.023 20.5844 122.799 20.7432C123.39 20.8755 124.573 21.1843 126.646 21.7578C127.017 21.8549 127.193 21.8725 127.308 21.802C127.572 21.6343 127.537 21.2814 127.202 20.7961C126.858 20.2932 126.805 19.9403 127.025 19.6139C127.149 19.4109 128.428 18.4316 130.193 17.1787C130.634 16.8611 131.146 16.4817 131.331 16.3229C132.002 15.767 132.019 15.6435 130.96 19.208C130.528 20.6638 130.484 20.7873 130.237 21.052C130.016 21.2814 129.54 21.502 129.275 21.502C129.081 21.502 128.958 21.7931 129.019 22.0931C129.055 22.2784 129.302 22.3578 132.293 23.1784L134.313 23.7254L134.525 23.5225C134.843 23.2225 134.79 22.9931 134.296 22.5343C133.766 22.0402 133.74 21.8725 134.084 20.6197C134.207 20.1609 134.507 19.0051 134.745 18.061C135.328 15.8023 135.654 14.7612 135.875 14.4524C135.981 14.3024 136.263 14.1083 136.545 13.9936C136.889 13.8524 137.048 13.7289 137.084 13.5877C137.163 13.2789 137.075 13.1466 136.748 13.076C136.59 13.0407 135.522 12.7584 134.384 12.4496C132.187 11.8496 131.878 11.8055 131.79 12.026C131.649 12.3878 131.737 12.7319 132.046 13.0319C132.593 13.5613 132.478 13.8701 131.455 14.5847C131.049 14.8671 130.21 15.4759 129.575 15.9435C128.022 17.0905 127.59 17.3816 127.528 17.3199C127.502 17.2934 127.643 16.7023 127.855 16.0141C128.913 12.4584 128.922 12.4231 129.478 12.2378C129.875 12.1055 130.078 11.8672 130.043 11.5584C130.016 11.3114 130.016 11.3114 127.722 10.7202C125.437 10.1379 124.828 10.032 124.723 10.2173Z" fill="white"/>
<path d="M143.26 10.6937C142.995 10.9583 143.004 11.1789 143.286 11.7348C143.507 12.1847 143.551 12.3436 143.507 12.6347C143.436 13.0582 138.928 22.0665 138.486 22.6665C138.178 23.09 137.825 23.2665 137.278 23.2665C136.96 23.2665 136.766 23.4782 136.766 23.8311C136.766 24.087 136.819 24.1488 137.189 24.3429C137.419 24.4664 137.939 24.7134 138.354 24.8811C138.769 25.0487 139.404 25.3311 139.766 25.4987C142.033 26.5398 142.086 26.5575 142.236 26.2751C142.386 25.984 142.333 25.7104 142.051 25.2958C141.68 24.7576 141.733 24.5193 142.58 22.8341C142.951 22.0754 143.454 21.0342 143.692 20.5049C143.93 19.9843 144.142 19.5608 144.177 19.5608C144.204 19.5696 144.442 19.702 144.707 19.8608C145.563 20.3725 145.942 21.0872 145.942 22.2165C145.942 22.6224 145.827 24.087 145.589 26.7869C145.536 27.3427 145.527 27.828 145.563 27.8633C145.721 28.0133 149.656 29.972 149.815 29.972C150.036 29.972 150.177 29.7867 150.239 29.4161C150.283 29.1426 150.248 29.0808 150.001 28.9044C149.427 28.4809 149.427 28.4809 149.427 25.1193C149.427 22.2165 149.418 22.0489 149.233 21.5724C148.977 20.8842 148.589 20.3725 148.051 20.0019C147.618 19.7108 147.609 19.6931 147.812 19.6137C148.801 19.2255 149.895 18.5991 150.742 17.9374C151.836 17.0727 152.418 16.8257 152.947 17.0021C153.362 17.1345 153.53 17.355 153.706 17.9903C153.83 18.4491 153.9 18.555 154.156 18.6961C154.615 18.9432 155.065 18.9079 155.277 18.6079C155.533 18.255 156.353 16.6668 156.353 16.5345C156.353 16.0139 154.059 15.0434 152.824 15.0346C151.774 15.0346 150.962 15.4493 149.295 16.8521C147.354 18.4756 146.224 18.8726 144.989 18.3609L144.698 18.2373L145.642 16.411C147.027 13.72 147.045 13.6935 147.848 13.5964C148.368 13.5258 148.677 13.3494 148.677 13.12C148.677 12.8818 148.527 12.8024 146.604 11.9465C145.686 11.5318 144.618 11.0554 144.239 10.8789C143.454 10.5172 143.445 10.5172 143.26 10.6937Z" fill="white"/>
<path d="M116.032 26.2663C115.423 26.3016 114.814 26.381 114.664 26.434C113.808 26.7781 113.385 27.378 113.385 28.2603C113.385 28.975 113.729 29.5308 114.329 29.8132C114.567 29.9279 114.77 30.0249 114.788 30.0338C114.814 30.0514 114.726 30.1749 114.603 30.3073C114.294 30.6425 113.411 31.9572 113.341 32.1866C113.297 32.3101 113.323 32.4071 113.394 32.4513C113.535 32.5395 114.126 32.5571 114.4 32.4777C114.576 32.4336 115.097 31.7542 115.67 30.819C115.997 30.2984 116.005 30.2896 116.923 30.1926L117.417 30.1396L117.47 31.2072C117.496 31.8425 117.558 32.3277 117.62 32.3983C117.691 32.4777 117.885 32.5307 118.105 32.5307C118.82 32.5307 118.767 32.7777 118.767 29.4073C118.767 27.1751 118.741 26.3634 118.661 26.284C118.546 26.1693 117.876 26.1693 116.032 26.2663ZM117.444 28.2074V29.1691L117.126 29.2309C116.623 29.3279 115.308 29.222 115 29.0632C114.62 28.8603 114.479 28.428 114.655 28.0045C114.885 27.4486 115.388 27.2633 116.72 27.2457L117.444 27.2369V28.2074Z" fill="white"/>
<path d="M97.927 26.4606C96.9918 26.5753 96.18 27.1576 95.7654 28.0134C95.536 28.4811 95.5183 28.5958 95.5183 29.6192C95.5183 30.6515 95.536 30.7574 95.7654 31.2162C96.233 32.1603 97.08 32.7073 98.174 32.7779C99.7534 32.8749 100.909 32.0015 101.262 30.4398C101.518 29.2663 101.28 28.0134 100.644 27.2723C100.08 26.6106 99.0828 26.3106 97.927 26.4606ZM99.2152 27.6164C99.4622 27.7488 99.6475 27.9605 99.8151 28.287C100.027 28.6928 100.062 28.8605 100.062 29.4781C100.062 29.8663 100.018 30.3515 99.9651 30.5457C99.8328 31.0309 99.1534 31.6926 98.7211 31.7721C97.8917 31.922 96.9918 31.2868 96.8065 30.4133C96.533 29.134 96.9212 27.8811 97.7152 27.537C98.1476 27.3517 98.8181 27.387 99.2152 27.6164Z" fill="white"/>
<path d="M111.038 26.4167C110.95 26.4784 110.297 27.4225 108.815 29.6194C108.506 30.0782 108.206 30.4929 108.162 30.5458C108.1 30.6076 108.082 30.2017 108.1 29.3547C108.118 28.6489 108.126 27.7048 108.109 27.2548L108.091 26.4431H107.659C106.891 26.4431 106.944 26.302 106.953 28.5077C106.962 29.5753 106.988 30.9164 107.024 31.4722L107.076 32.4869L107.535 32.5134C107.985 32.5398 107.994 32.5398 108.329 32.1163C108.515 31.8781 109.185 30.8988 109.812 29.9282L110.959 28.1813L111.003 30.3341L111.047 32.4869L111.603 32.5134L112.15 32.5398L112.132 29.4694L112.106 26.399L111.62 26.3725C111.356 26.3637 111.091 26.3814 111.038 26.4167Z" fill="white"/>
<path d="M102.753 26.5224L102.488 26.5753V29.5222V32.4779L102.78 32.5485C102.93 32.5926 103.194 32.5926 103.353 32.5485L103.635 32.4779L103.662 29.9898L103.68 27.5017H104.747C105.33 27.5017 105.885 27.4576 105.982 27.4135C106.168 27.3076 106.212 26.8929 106.062 26.6106C105.974 26.4518 105.868 26.443 104.491 26.4518C103.68 26.4606 102.903 26.4871 102.753 26.5224Z" fill="white"/>
<path d="M73.1078 26.6281C71.8197 26.7428 70.9462 27.3957 70.9462 28.2428C70.9462 28.5251 70.9638 28.5516 71.2991 28.6045C71.6961 28.6751 72.005 28.5957 72.005 28.4369C72.005 28.2339 72.6137 27.6869 72.9578 27.5987C73.7078 27.3869 74.493 27.5722 74.6519 27.9869C74.7048 28.1192 74.7401 28.3927 74.7401 28.6045C74.7401 29.0633 74.793 29.0368 73.4166 29.2221C71.5373 29.478 70.9815 29.7691 70.7256 30.6073C70.558 31.1808 70.558 31.4808 70.7256 31.8955C70.9991 32.5396 71.4315 32.8484 72.2167 32.9366C72.8784 33.016 73.6637 32.8396 74.2636 32.4778L74.7489 32.1866L74.8901 32.4955C75.0401 32.7954 75.0489 32.8043 75.5165 32.7778L76.0018 32.7513L75.9841 30.5897C75.9753 29.3986 75.9488 28.2339 75.9135 28.0045C75.8518 27.5016 75.5959 27.0869 75.2077 26.8664C74.8636 26.6634 73.9284 26.5576 73.1078 26.6281ZM74.7048 30.3868C74.6166 31.1544 74.5195 31.322 73.9725 31.6484C73.549 31.9131 73.3902 31.9572 72.9225 31.9572C72.1991 31.9572 71.8638 31.7367 71.8814 31.2691C71.8903 30.872 72.102 30.5456 72.4637 30.3603C72.7637 30.2015 74.0872 29.9015 74.5107 29.8927L74.7577 29.8838L74.7048 30.3868Z" fill="white"/>
<path d="M83.7661 26.7428C83.1837 27.0164 82.5485 27.6516 82.3103 28.1898C82.0809 28.7192 82.0015 29.9456 82.1515 30.5985C82.3809 31.6043 82.8838 32.2219 83.8014 32.6366C84.3925 32.9101 85.6365 32.919 86.2189 32.6455C87.1365 32.2308 87.6923 31.4455 87.8864 30.2897C88.0893 29.178 87.7011 27.7222 87.0747 27.1928C86.4924 26.7076 86.1395 26.584 85.1513 26.5576C84.3131 26.5223 84.1807 26.5399 83.7661 26.7428ZM85.6454 27.581C86.3336 27.8987 86.6512 28.5516 86.6512 29.6809C86.6512 31.1191 86.0777 31.8514 84.9572 31.8514C84.0043 31.8514 83.4396 31.2426 83.3337 30.0868C83.2367 29.0633 83.6249 27.9781 84.2072 27.6604C84.7101 27.3958 85.1778 27.3693 85.6454 27.581Z" fill="white"/>
<path d="M89.351 26.6368C89.3245 26.6986 89.2892 27.7397 89.2627 28.9485C89.2186 30.3954 89.1657 31.2248 89.0951 31.3748C89.0245 31.5248 88.8833 31.6218 88.6363 31.6836C88.2128 31.7807 88.151 31.8512 88.151 32.2924C88.151 32.5747 88.1863 32.6365 88.3981 32.7159C88.6981 32.8394 89.5098 32.6894 89.8274 32.46C90.3127 32.1071 90.3833 31.7807 90.4538 29.619C90.4891 28.525 90.5244 27.6338 90.5244 27.625C90.5597 27.5721 92.5449 27.5103 92.7831 27.5544L93.0919 27.6074V30.069C93.0919 32.8659 93.0478 32.7071 93.8684 32.6365L94.3271 32.6012L94.3095 29.5925L94.283 26.5751L91.8302 26.5486C89.9156 26.531 89.3774 26.5486 89.351 26.6368Z" fill="white"/>
<path d="M46.727 26.743C46.5328 26.8047 46.2505 26.9194 46.1005 26.9988C45.7299 27.193 45.1123 27.8812 44.9182 28.3223C44.6888 28.8429 44.5388 29.8399 44.6094 30.4134C44.7506 31.5251 45.2182 32.2838 46.0829 32.7603C46.5064 32.9897 46.6211 33.0162 47.3887 33.0162C48.0769 33.0162 48.3063 32.9809 48.6945 32.8044C49.418 32.4779 50.0268 31.6398 50.0356 30.978C50.0356 30.6604 49.9209 30.5898 49.4092 30.5898C49.0827 30.5898 49.0651 30.6075 48.8445 31.0751C48.4827 31.825 47.821 32.1868 47.1328 32.0015C46.1799 31.7456 45.7388 30.7486 45.977 29.3546C46.127 28.4546 46.4887 27.9517 47.1063 27.74C47.8739 27.4929 48.5268 27.7576 48.8974 28.4811C49.0651 28.8164 49.0827 28.8252 49.4003 28.7723C49.8856 28.684 50.0356 28.5782 50.0356 28.3311C50.0356 27.7135 49.365 26.9812 48.5886 26.7518C48.0592 26.593 47.2122 26.593 46.727 26.743Z" fill="white"/>
<path d="M57.8616 26.7428C56.7146 27.1575 56.0706 28.1368 55.9735 29.6367C55.9294 30.2808 55.9559 30.5014 56.1235 31.0308C56.5823 32.4689 57.8969 33.2453 59.3968 32.9718C60.1115 32.8395 60.5527 32.6101 61.0291 32.1248C61.6202 31.516 61.8055 30.9337 61.8143 29.7073C61.8143 28.728 61.8055 28.6662 61.5232 28.0927C61.1967 27.431 60.7026 26.9898 60.0144 26.7516C59.5292 26.584 58.3204 26.584 57.8616 26.7428ZM59.6527 27.7486C60.3409 28.0927 60.7203 29.1162 60.5527 30.1749C60.438 30.872 60.3497 31.1014 60.0409 31.4631C59.4939 32.116 58.4263 32.1954 57.8175 31.6219C57.1117 30.9602 56.9705 29.1603 57.5616 28.278C57.994 27.6515 58.9645 27.3957 59.6527 27.7486Z" fill="white"/>
<path d="M76.7694 26.7516C76.6458 26.9016 76.7252 27.5104 76.8841 27.6074C76.9458 27.6427 77.334 27.678 77.7575 27.678H78.5251L78.5869 28.0045C78.6222 28.1898 78.631 29.0456 78.6046 29.9279C78.5781 30.8014 78.5781 31.7895 78.6134 32.1336L78.6663 32.7513H79.1957H79.7251L79.7692 30.2014L79.8133 27.6516L80.5809 27.6692C81.5867 27.6957 81.7279 27.6163 81.6926 27.0781L81.6661 26.6634L79.2751 26.6369C77.2282 26.6193 76.8664 26.6369 76.7694 26.7516Z" fill="white"/>
<path d="M50.7238 26.8047C50.5473 26.9017 50.5208 27.1929 50.6532 27.537C50.7326 27.7576 50.7591 27.7664 51.5796 27.7664H52.4178V30.3251C52.4178 33.2278 52.3649 33.0514 53.1501 32.919L53.6089 32.8396L53.6354 30.2986L53.653 27.7664H54.4736C54.9147 27.7664 55.3294 27.7311 55.3823 27.6958C55.5411 27.5988 55.6206 27.0958 55.5059 26.8929C55.4176 26.7164 55.347 26.7076 53.1413 26.7076C51.7649 26.7076 50.812 26.7517 50.7238 26.8047Z" fill="white"/>
<path d="M62.979 26.7692C62.9525 26.8133 62.9261 28.1897 62.9084 29.8396L62.8731 32.8394L63.429 32.8659L63.976 32.8924V30.7219C63.976 29.5308 64.0025 28.5603 64.0466 28.5603C64.0819 28.5603 64.4348 29.522 64.8318 30.6954L65.5553 32.8394L66.0318 32.8659C66.57 32.8924 66.6317 32.8483 66.8259 32.2659C66.8964 32.0454 67.1523 31.3748 67.3993 30.766C67.6376 30.1572 67.9287 29.3808 68.0434 29.0455L68.2552 28.4279L68.2817 30.6601L68.2993 32.8924L68.8551 32.8659L69.4022 32.8394L69.4639 30.1043C69.4904 28.5956 69.4904 27.228 69.4551 27.0604L69.3934 26.7515H68.6169H67.8405L67.2052 28.472C66.8523 29.4161 66.4906 30.4043 66.4023 30.6513C66.3053 30.9072 66.2082 31.1189 66.1729 31.1189C66.1377 31.1189 65.8289 30.2366 65.4759 29.1514C65.123 28.075 64.7789 27.0868 64.7172 26.9457C64.5936 26.7163 64.5672 26.7074 63.7996 26.7074C63.3672 26.7074 62.9967 26.7339 62.979 26.7692Z" fill="white"/>
</svg>
