<svg width="107" height="38" viewBox="0 0 107 38" fill="none" xmlns="http://www.w3.org/2000/svg">
<path d="M17.7458 0.0480824C16.8777 0.191772 16.231 0.592904 14.0757 2.31119C13.4351 2.82009 12.6508 3.44274 12.3395 3.68821C12.0281 3.93368 11.5552 4.31086 11.2917 4.5264C10.5074 5.15504 8.80112 6.52607 8.59756 6.68772C7.98688 7.17267 7.61568 7.54986 7.67555 7.6217C7.75338 7.7175 8.14254 7.55585 9.66924 6.82542C10.9385 6.21475 11.5073 5.92138 12.7286 5.26879C14.1116 4.5264 14.3751 4.38869 15.7221 3.6463C17.183 2.85002 17.5961 2.6764 18.0631 2.6764C18.7157 2.6764 19.0689 3.03562 19.3922 4.05342C19.6497 4.84371 19.7814 5.77769 20.0628 8.78319C20.2723 11.0164 20.4519 12.0521 20.5657 11.7109C20.6675 11.4175 21.1644 7.4361 21.2901 5.87947C21.344 5.25083 21.4099 4.49646 21.4398 4.2031C21.5296 3.38287 21.5116 2.98772 21.3739 2.49679C21.1045 1.51491 20.5537 0.790477 19.7634 0.37737C19.1108 0.0301208 18.4702 -0.0716591 17.7458 0.0480824Z" fill="#C9A24D"/>
<path d="M60.3915 1.94001C59.5653 1.95198 59.1103 1.98192 59.0564 2.02981C59.0085 2.06574 58.9786 2.17949 58.9906 2.28127C59.0025 2.42496 59.0684 2.50878 59.3079 2.65845C59.9784 3.1015 59.9365 3.29308 58.8349 4.68208C58.3021 5.35861 58.1703 5.52625 57.7093 6.11897C56.961 7.0769 56.2245 7.9989 56.1647 8.03483C56.0868 8.08272 56.0868 7.33434 56.1647 5.02334C56.2245 3.14341 56.2485 3.02965 56.5598 2.81412C56.9669 2.52674 57.0627 2.42496 57.0627 2.26331C57.0627 1.95797 57.0508 1.95797 55.081 1.95797C53.0574 1.95797 53.0873 1.95198 53.1233 2.32917C53.1412 2.50279 53.1831 2.55069 53.4885 2.70635C53.6801 2.80813 53.8656 2.93386 53.9016 2.99373C53.9375 3.06557 53.9375 3.74211 53.8956 5.02933C53.8537 6.08904 53.7998 7.78936 53.7699 8.80716C53.71 10.8847 53.716 10.8667 53.255 11.0703C52.8598 11.2439 52.7521 11.657 53.0694 11.7648C53.1412 11.7887 53.9974 11.7947 54.9733 11.7767C56.8891 11.7468 56.943 11.7348 56.943 11.4175C56.943 11.2319 56.8652 11.1541 56.6317 11.0942C56.3024 11.0164 56.033 10.4596 56.1048 10.0285C56.1467 9.79502 56.2305 9.67528 57.422 8.19049C58.7331 6.55603 59.1702 5.99923 59.4156 5.65797C59.5533 5.46638 59.6851 5.31072 59.715 5.31072C59.7689 5.31072 59.7689 5.40052 59.6911 8.12463C59.6491 9.49567 59.5953 10.5135 59.5533 10.6332C59.5114 10.7649 59.3917 10.9086 59.2181 11.0284C58.9367 11.2259 58.8409 11.4594 58.9726 11.6211C59.0624 11.7288 62.5648 11.8127 62.7504 11.7169C63.0019 11.5851 62.8163 11.0583 62.5169 11.0583C62.3074 11.0583 62.044 10.747 62.0021 10.4356C61.9781 10.28 62.0021 8.56169 62.0499 6.6159C62.1517 2.62852 62.1098 2.92188 62.6367 2.61056C62.8642 2.47884 62.9001 2.43095 62.9001 2.25732C62.9001 1.96994 62.7265 1.8981 62.1218 1.91007C61.8584 1.92205 61.08 1.93402 60.3915 1.94001Z" fill="#C9A24D"/>
<path d="M50.2974 2.14357C49.4652 2.21541 46.6932 2.42496 44.6995 2.55667C43.7475 2.62253 42.8974 2.69438 42.8196 2.71234L42.6819 2.74227L42.7238 3.86185C42.7477 4.47852 42.7956 5.02932 42.8255 5.09518C42.8794 5.19098 42.9333 5.20295 43.2686 5.17301C43.4781 5.14907 43.6997 5.10716 43.7595 5.07722C43.8194 5.04729 43.9451 4.83175 44.0289 4.60424C44.3942 3.68224 44.6276 3.48467 45.4778 3.41282L45.9149 3.3769L45.9508 3.81994C46.0047 4.43661 46.1663 8.96282 46.1843 10.1722C46.1963 11.1601 46.1963 11.172 46.0466 11.3277C45.9628 11.4175 45.8011 11.5253 45.6874 11.5732C45.5736 11.6211 45.4598 11.6929 45.4359 11.7348C45.3641 11.8486 45.382 12.1 45.4718 12.2258C45.5497 12.3335 45.5796 12.3335 46.6812 12.2317C47.3039 12.1779 48.154 12.106 48.5791 12.0821C49.3993 12.0282 49.5191 11.9803 49.5191 11.7169C49.5191 11.5313 49.3814 11.3936 49.1359 11.3337C49.0401 11.3097 48.8904 11.2139 48.8006 11.1241C48.6629 10.9924 48.627 10.8906 48.5971 10.5733C48.5552 10.0704 48.2019 3.73013 48.2019 3.43677V3.20327L48.8605 3.22722L49.5131 3.24518L49.7585 3.48467C49.8963 3.61638 50.1058 3.92172 50.2196 4.1612C50.3393 4.40068 50.489 4.62221 50.5429 4.65813C50.6865 4.72997 51.0158 4.72399 51.2493 4.64615C51.417 4.58628 51.4349 4.55635 51.4349 4.33483C51.4289 3.84389 51.3212 2.28127 51.2793 2.17949C51.2374 2.06573 51.1954 2.06573 50.2974 2.14357Z" fill="#C9A24D"/>
<path d="M68.1807 2.31123C67.3186 2.50282 66.7259 2.83809 66.0433 3.51463C65.5883 3.96366 65.4147 4.18518 65.2171 4.56236C64.7202 5.54424 64.5106 6.66382 64.5585 8.08275C64.6304 10.0405 65.277 11.2439 66.5941 11.8965C67.4263 12.3036 68.7914 12.5491 69.7553 12.4653C70.3301 12.4174 71.4915 12.1599 71.5873 12.0641C71.6891 11.9564 71.9286 10.0345 71.8448 9.95071C71.8148 9.92077 71.5754 9.88485 71.3179 9.87288L70.8509 9.84893L70.5935 10.3039C70.2702 10.8907 70.1085 11.0823 69.7972 11.2319C69.1506 11.5433 68.3424 11.4115 67.8275 10.9086C67.2527 10.3518 66.9833 9.45378 66.9833 8.09472C66.9833 7.02903 67.127 6.01123 67.4024 5.17304C67.8574 3.79602 68.5818 3.14343 69.5637 3.23324C70.2283 3.29311 70.5576 3.55654 70.9467 4.33485C71.0784 4.60427 71.2161 4.84375 71.2521 4.86171C71.3898 4.94553 72.0244 4.92159 72.1202 4.83178C72.1741 4.77191 72.2399 4.47256 72.2998 3.96366C72.4315 2.8321 72.4375 2.86803 72.1322 2.73631C71.9885 2.67045 71.5335 2.53874 71.1263 2.43696C70.1325 2.1855 68.971 2.13761 68.1807 2.31123Z" fill="#C9A24D"/>
<path d="M7.95096 2.61653C6.46617 2.74825 4.80776 3.11345 3.75404 3.54452C1.17961 4.58627 0.0181183 5.96928 0.000157192 8.01685C-0.0118169 9.44177 0.658733 10.8667 2.55064 13.4232C3.60436 14.8421 4.43656 16.1952 4.85566 17.1531C5.70582 19.1228 5.96925 20.9429 6.38235 27.9118C6.48413 29.5523 6.57993 30.5282 6.7775 31.9531C7.02297 33.7193 7.35226 34.6353 8.2563 36.0782C8.96277 37.2097 9.55549 38 9.70517 38C9.8309 38 9.76504 37.7186 9.07653 35.3717C8.59756 33.7253 8.51973 32.9529 8.46585 29.0793C8.43591 27.0856 8.45387 26.0558 8.53769 24.3196C8.82507 18.3445 8.31617 16.4706 5.30469 12.3754C4.0055 10.6092 3.28106 9.42381 3.08948 8.75326C3.01164 8.49581 2.99368 8.27429 3.01763 7.94501C3.11342 6.59193 3.84983 5.95132 6.16083 5.21491C7.95695 4.64015 9.50161 3.96362 10.4296 3.35892C10.9624 3.00569 11.0103 2.94582 10.8307 2.83805C10.5014 2.62252 9.07054 2.51475 7.95096 2.61653Z" fill="#C9A24D"/>
<path d="M74.4013 2.77821C74.3534 2.92789 74.1259 4.37675 74.084 4.77789C74.054 5.07125 74.066 5.12514 74.1618 5.17902C74.3175 5.25685 74.8204 5.32271 74.9581 5.2808C75.0179 5.26284 75.2215 5.00539 75.4131 4.70604C75.8501 4.03549 76.0058 3.93371 76.5566 3.9397C76.7841 3.9397 77.0775 3.95766 77.2092 3.98161C77.4427 4.02352 77.4487 4.03549 77.4487 4.263C77.4427 4.48452 77.1254 6.4363 76.9937 7.02902C76.9637 7.16672 76.7781 8.20847 76.5866 9.34601C76.2333 11.3696 76.1495 11.8007 76.0597 11.9324C75.9938 12.0222 75.6526 12.1958 75.5328 12.1958C75.2455 12.1958 75.0718 12.7646 75.3412 12.8245C75.5388 12.8664 76.9458 13.1178 78.0953 13.3154C79.2328 13.507 79.2927 13.495 79.3226 13.1119C79.3406 12.8844 79.3286 12.8664 79.0592 12.7287C78.9035 12.6509 78.7239 12.5132 78.6581 12.4234C78.5443 12.2677 78.5383 12.2318 78.6102 11.645C78.6521 11.3038 78.7898 10.4057 78.9215 9.65135C79.0472 8.89099 79.2927 7.43614 79.4603 6.40636C79.634 5.38258 79.7896 4.50847 79.8136 4.47255C79.8734 4.37675 80.55 4.50248 80.8912 4.67611C81.2744 4.86769 81.4421 5.20297 81.6396 6.16089C81.6636 6.28662 81.7234 6.33452 81.8971 6.38242C82.2024 6.47222 82.6574 6.46623 82.7293 6.37044C82.8251 6.25669 83.1304 4.11332 83.0645 4.04747C82.9987 3.98161 83.1304 4.00556 79.4544 3.41883C76.5985 2.9698 74.6647 2.67643 74.515 2.67643C74.4671 2.67643 74.4192 2.72433 74.4013 2.77821Z" fill="#C9A24D"/>
<path d="M38.6346 3.12545C37.0421 3.35895 37.0241 3.36493 36.9463 3.50862C36.8505 3.70021 36.9642 3.89179 37.2756 4.05344C37.7066 4.27497 37.7485 4.40668 37.9341 6.02318C38.1137 7.54988 38.1137 7.51995 37.7545 7.52593C37.6587 7.52593 36.9582 7.6337 36.1979 7.76542C35.4435 7.89114 34.8029 7.98095 34.7849 7.957C34.7251 7.88516 34.4257 4.90959 34.4616 4.75393C34.4856 4.67011 34.6053 4.52043 34.737 4.41865C34.9226 4.26299 34.9705 4.18516 34.9705 4.0295C34.9705 3.65231 34.9466 3.65231 33.2163 3.92772C32.3542 4.06542 31.5579 4.19713 31.4502 4.21509C31.2286 4.25102 31.1269 4.42464 31.1987 4.62221C31.2226 4.68807 31.3723 4.80781 31.534 4.89163C31.7375 4.99341 31.8633 5.10717 31.9291 5.25684C32.0309 5.4604 32.4081 7.96299 32.5757 9.5316C32.6116 9.89082 32.6955 10.6272 32.7613 11.1601C32.923 12.5371 32.917 12.8544 32.7194 13.0939C32.6296 13.1957 32.4859 13.3154 32.3901 13.3693C32.1926 13.4711 32.1267 13.6627 32.2105 13.8902C32.2883 14.0937 32.4081 14.0937 33.2104 13.9321C33.5396 13.8662 34.276 13.7285 34.8508 13.6267C36.0961 13.4172 36.0901 13.4172 36.138 13.2795C36.2039 13.0759 36.0662 12.8664 35.7848 12.7466C35.6411 12.6808 35.4735 12.561 35.4196 12.4772C35.3058 12.3036 34.8688 9.03467 34.9526 8.96283C35.0065 8.91493 37.1678 8.56768 37.7964 8.50781C38.1856 8.47189 38.1976 8.47189 38.2275 8.60959C38.2934 8.90894 38.5029 11.196 38.5029 11.639V12.0941L38.2275 12.3635C38.012 12.567 37.9461 12.6688 37.9521 12.8065C37.9581 13.0041 38.0599 13.1597 38.1616 13.1238C38.2036 13.1059 39.0118 12.9861 39.9697 12.8484C40.9217 12.7167 41.7419 12.579 41.7838 12.5431C41.8317 12.5012 41.8557 12.3874 41.8437 12.2617C41.8257 12.0641 41.8018 12.0402 41.5503 11.9564C41.227 11.8546 41.1013 11.7588 40.9875 11.5313C40.8977 11.3576 40.1194 4.74794 40.1194 4.16121C40.1194 3.86186 40.1314 3.83791 40.4247 3.56849C40.6762 3.34099 40.7241 3.25717 40.7061 3.11946C40.6882 2.95183 40.6762 2.94584 40.329 2.93387C40.1314 2.93387 39.371 3.01768 38.6346 3.12545Z" fill="#C9A24D"/>
<path d="M24.6129 5.64599C24.104 5.79567 23.667 5.94534 23.649 5.98127C23.6251 6.01719 23.5891 6.20877 23.5652 6.41233C23.4874 7.14874 22.9545 10.4117 22.5115 12.8843C22.0684 15.3929 21.9846 15.6743 21.5775 16.0754C21.2781 16.3748 21.2482 16.5604 21.4637 16.7759C21.6314 16.9436 21.4278 16.9795 23.176 16.4706C23.6849 16.3209 24.2118 16.1652 24.3435 16.1293C24.559 16.0635 24.583 16.0335 24.6009 15.8479C24.6249 15.6144 24.5052 15.4887 24.2657 15.4887C24.0382 15.4887 23.7149 15.3091 23.6251 15.1235C23.5772 15.0337 23.5353 14.8002 23.5353 14.6086C23.5353 14.2015 23.6849 13.2196 23.7628 13.1418C23.7867 13.1178 23.9663 13.04 24.1579 12.9741C24.565 12.8305 26.6306 12.2557 26.7443 12.2557C26.8641 12.2557 27.0377 12.5431 27.361 13.2615C27.798 14.2254 27.798 14.1835 27.4328 14.5188C27.1155 14.8122 27.0616 14.9618 27.2113 15.1654C27.2951 15.2792 27.3071 15.2792 27.9477 15.1055C28.3009 15.0097 29.187 14.7822 29.9115 14.5966C31.1328 14.2853 31.2286 14.2494 31.2466 14.1177C31.2885 13.8303 31.2107 13.6986 30.9412 13.6267C30.3186 13.4591 30.115 13.2436 29.4684 12.0461C29.3247 11.7827 29.0493 11.3097 28.8637 10.9984C28.6781 10.6871 28.3908 10.1842 28.2351 9.89081C28.0734 9.59146 27.6723 8.89097 27.337 8.33418C27.0018 7.77139 26.4809 6.87932 26.1755 6.34049C25.8642 5.80764 25.6008 5.37059 25.5768 5.37657C25.5589 5.37657 25.1218 5.5023 24.6129 5.64599ZM24.7387 8.39405C24.8404 8.59162 25.1098 9.0646 25.3314 9.44178C25.9061 10.4237 26.3611 11.3097 26.3192 11.3517C26.2653 11.3995 23.8705 12.0761 23.8466 12.0461C23.8226 12.0282 24.4213 8.25634 24.4692 8.07075C24.5052 7.96298 24.5052 7.96897 24.7387 8.39405Z" fill="#C9A24D"/>
<path d="M17.8775 6.65782C17.7458 6.69973 17.3267 6.82545 16.9495 6.92723C16.5723 7.02901 15.788 7.24455 15.2133 7.4062C12.8364 8.07076 12.3634 8.19649 11.5073 8.39406C11.0104 8.50183 10.5494 8.62756 10.4835 8.66348C10.244 8.78921 10.3877 9.10652 10.711 9.17238C11.3516 9.30409 11.4295 9.36995 11.7348 10.0525C12.6149 12.0043 13.2316 16.303 12.9083 18.2847C12.6987 19.5719 12.3814 20.1826 11.4235 21.1225L10.8367 21.7093L10.7709 22.5355C10.6392 24.3496 10.711 36.8685 10.8547 36.9583C10.9505 37.0182 11.1361 36.7966 11.2259 36.5093C11.3756 36.0542 11.4115 35.713 11.7707 31.6538C11.8545 30.7138 11.9623 29.5583 12.0102 29.0793C12.124 27.9777 12.2497 26.5049 12.3694 24.9782C12.549 22.6852 12.6927 22.1822 13.2974 21.6374C13.7465 21.2363 14.1176 21.0746 17.6081 19.8174C18.5181 19.4881 19.1288 19.4222 19.6497 19.5898C20.5058 19.8653 21.3021 20.5238 21.9367 21.4758C22.26 21.9667 22.3379 22.0445 22.4935 22.0625C22.8647 22.0984 22.8587 22.0206 22.4337 20.5358C22.2241 19.7874 22.0146 19.0331 21.9727 18.8714C21.8409 18.3146 21.799 18.2727 21.3201 18.1889C20.8651 18.117 20.5178 17.9674 20.3502 17.7877C20.0568 17.4585 19.7994 16.6682 18.9013 13.3034C18.129 10.3877 17.656 8.41801 17.65 8.04681L17.638 7.68759L18.0751 7.29244C18.4104 6.9871 18.5062 6.86138 18.5062 6.72966C18.5062 6.58597 18.4822 6.56801 18.3146 6.574C18.2068 6.574 18.0092 6.61591 17.8775 6.65782ZM15.2552 9.11251C15.4049 9.65134 15.9916 11.8306 16.3808 13.3334C16.5244 13.8782 16.8058 14.9559 17.0094 15.7282C17.6141 18.0392 17.668 18.2547 17.668 18.3565C17.668 18.4583 17.1591 18.6678 16.2311 18.9552C16.0155 19.0211 15.363 19.2246 14.7762 19.4102C14.1895 19.5958 13.6926 19.7395 13.6746 19.7216C13.6566 19.7036 13.7165 19.3025 13.8063 18.8295C14.0278 17.686 14.0757 16.0455 13.9261 14.7703C13.7345 13.0999 13.4651 11.657 13.052 10.1662C12.9202 9.69325 12.8244 9.26817 12.8424 9.23225C12.8544 9.19034 12.9861 9.13047 13.1298 9.08856C13.2675 9.05264 13.7405 8.92691 14.1655 8.81315C14.5966 8.6994 14.9858 8.61558 15.0337 8.62157C15.0876 8.62756 15.1714 8.81315 15.2552 9.11251Z" fill="#C9A24D"/>
<path d="M84.6332 6.93323C84.6092 6.96915 84.5913 7.08889 84.5853 7.20264C84.5793 7.37028 84.6272 7.46009 84.8427 7.67562C85.0403 7.87918 85.1002 7.98096 85.0942 8.12465C85.0882 8.34617 84.8487 9.29811 84.3578 11.0284C83.777 13.0759 83.7351 13.1538 83.1544 13.3154C82.879 13.3933 82.7832 13.4471 82.7413 13.5609C82.6395 13.8243 82.8011 13.968 83.328 14.0758C83.7291 14.1656 84.5314 14.3751 85.9383 14.7643C86.1898 14.8301 86.3095 14.8421 86.3874 14.7942C86.567 14.6805 86.543 14.441 86.3155 14.1117C86.082 13.7704 86.0461 13.531 86.1958 13.3094C86.2796 13.1717 87.1477 12.5072 88.3451 11.657C88.6445 11.4415 88.9917 11.184 89.1175 11.0763C89.5725 10.6991 89.5845 10.6153 88.866 13.034C88.5726 14.0219 88.5427 14.1057 88.3751 14.2853C88.2254 14.441 87.9021 14.5907 87.7225 14.5907C87.5908 14.5907 87.507 14.7882 87.5489 14.9918C87.5728 15.1175 87.7404 15.1714 89.7701 15.7282L91.1411 16.0994L91.2848 15.9617C91.5003 15.7581 91.4644 15.6025 91.1291 15.2912C90.7699 14.9559 90.7519 14.8421 90.9854 13.992C91.0693 13.6806 91.2728 12.8963 91.4345 12.2557C91.8296 10.723 92.0511 10.0166 92.2008 9.80701C92.2726 9.70523 92.4642 9.57352 92.6558 9.49568C92.8893 9.39989 92.9971 9.31607 93.021 9.22028C93.0749 9.01073 93.015 8.92093 92.7935 8.87303C92.6858 8.84908 91.9613 8.6575 91.189 8.44795C89.6982 8.04083 89.4887 8.0109 89.4288 8.16057C89.333 8.40604 89.3929 8.63954 89.6024 8.8431C89.9736 9.20232 89.8958 9.41187 89.2013 9.89682C88.9259 10.0884 88.3571 10.5015 87.926 10.8188C86.8723 11.5971 86.579 11.7947 86.5371 11.7528C86.5191 11.7348 86.6149 11.3337 86.7586 10.8667C87.477 8.45394 87.483 8.42999 87.8602 8.30426C88.1296 8.21446 88.2673 8.0528 88.2434 7.84326C88.2254 7.67562 88.2254 7.67562 86.6688 7.27449C85.1181 6.87934 84.705 6.8075 84.6332 6.93323Z" fill="#C9A24D"/>
<path d="M97.212 7.25653C97.0323 7.43614 97.0383 7.58581 97.2299 7.963C97.3796 8.26834 97.4095 8.3761 97.3796 8.57368C97.3317 8.86106 94.2723 14.9738 93.973 15.381C93.7634 15.6683 93.5239 15.7881 93.1527 15.7881C92.9372 15.7881 92.8055 15.9318 92.8055 16.1712C92.8055 16.3449 92.8414 16.3868 93.0929 16.5185C93.2485 16.6023 93.6018 16.77 93.8832 16.8837C94.1645 16.9975 94.5956 17.189 94.8411 17.3028C96.3798 18.0093 96.4157 18.0212 96.5175 17.8297C96.6192 17.6321 96.5833 17.4465 96.3917 17.1651C96.1403 16.7999 96.1762 16.6382 96.7509 15.4947C97.0024 14.9798 97.3437 14.2734 97.5053 13.9141C97.667 13.5609 97.8107 13.2735 97.8346 13.2735C97.8526 13.2795 98.0142 13.3693 98.1938 13.4771C98.7746 13.8243 99.032 14.3093 99.032 15.0756C99.032 15.351 98.9542 16.3449 98.7925 18.1769C98.7566 18.5541 98.7506 18.8834 98.7746 18.9073C98.8823 19.0091 101.553 20.3382 101.66 20.3382C101.81 20.3382 101.906 20.2125 101.948 19.961C101.978 19.7755 101.954 19.7335 101.786 19.6138C101.397 19.3264 101.397 19.3264 101.397 17.0454C101.397 15.0756 101.391 14.9619 101.265 14.6386C101.092 14.1716 100.828 13.8243 100.463 13.5729C100.17 13.3753 100.164 13.3633 100.301 13.3094C100.972 13.046 101.714 12.6209 102.289 12.1719C103.031 11.5852 103.427 11.4175 103.786 11.5373C104.067 11.6271 104.181 11.7767 104.301 12.2078C104.384 12.5191 104.432 12.591 104.606 12.6868C104.917 12.8544 105.223 12.8305 105.366 12.6269C105.54 12.3874 106.097 11.3098 106.097 11.22C106.097 10.8667 104.54 10.2081 103.702 10.2022C102.989 10.2022 102.439 10.4835 101.307 11.4355C99.9899 12.5371 99.2236 12.8065 98.3854 12.4593L98.1878 12.3755L98.8285 11.1361C99.7684 9.31008 99.7804 9.29212 100.325 9.22627C100.678 9.17837 100.888 9.05863 100.888 8.90296C100.888 8.74131 100.786 8.68743 99.481 8.10669C98.8584 7.8253 98.134 7.502 97.8765 7.38225C97.3437 7.13678 97.3377 7.13678 97.212 7.25653Z" fill="#C9A24D"/>
<path d="M78.7359 17.8237C78.3228 17.8476 77.9097 17.9015 77.8079 17.9374C77.2272 18.1709 76.9398 18.578 76.9398 19.1767C76.9398 19.6617 77.1733 20.0389 77.5804 20.2305C77.742 20.3083 77.8797 20.3742 77.8917 20.3801C77.9097 20.3921 77.8498 20.4759 77.766 20.5657C77.5564 20.7932 76.9577 21.6853 76.9098 21.841C76.8799 21.9248 76.8979 21.9907 76.9458 22.0206C77.0416 22.0805 77.4427 22.0924 77.6283 22.0386C77.748 22.0086 78.1013 21.5476 78.4904 20.913C78.7119 20.5598 78.7179 20.5538 79.3406 20.4879L79.6759 20.452L79.7118 21.1764C79.7297 21.6075 79.7716 21.9368 79.8136 21.9847C79.8615 22.0386 79.9932 22.0745 80.1428 22.0745C80.6278 22.0745 80.5919 22.2421 80.5919 19.9551C80.5919 18.4403 80.5739 17.8895 80.52 17.8356C80.4422 17.7578 79.9872 17.7578 78.7359 17.8237ZM79.6938 19.1408V19.7934L79.4783 19.8353C79.137 19.9012 78.245 19.8293 78.0354 19.7216C77.778 19.5839 77.6822 19.2905 77.8019 19.0031C77.9576 18.6259 78.2988 18.5002 79.2029 18.4882L79.6938 18.4822V19.1408Z" fill="#C9A24D"/>
<path d="M66.4505 17.9554C65.8158 18.0332 65.265 18.4283 64.9836 19.0091C64.828 19.3264 64.816 19.4042 64.816 20.0987C64.816 20.7992 64.828 20.871 64.9836 21.1824C65.301 21.823 65.8757 22.1942 66.6181 22.2421C67.6898 22.3079 68.4741 21.7152 68.7136 20.6555C68.8872 19.8592 68.7256 19.0091 68.2945 18.5062C67.9113 18.0571 67.2348 17.8536 66.4505 17.9554ZM67.3246 18.7397C67.4922 18.8295 67.6179 18.9732 67.7317 19.1947C67.8754 19.4701 67.8993 19.5838 67.8993 20.0029C67.8993 20.2664 67.8694 20.5956 67.8335 20.7274C67.7437 21.0566 67.2827 21.5057 66.9893 21.5596C66.4265 21.6613 65.8158 21.2303 65.6901 20.6376C65.5045 19.7694 65.768 18.9193 66.3068 18.6858C66.6002 18.56 67.0552 18.584 67.3246 18.7397Z" fill="#C9A24D"/>
<path d="M75.3472 17.9254C75.2874 17.9673 74.8443 18.608 73.8385 20.0987C73.6289 20.4101 73.4254 20.6915 73.3954 20.7274C73.3535 20.7693 73.3416 20.4939 73.3535 19.9191C73.3655 19.4402 73.3715 18.7995 73.3595 18.4942L73.3476 17.9434H73.0542C72.5333 17.9434 72.5692 17.8476 72.5752 19.3444C72.5812 20.0688 72.5992 20.9788 72.6231 21.356L72.659 22.0445L72.9704 22.0625C73.2757 22.0805 73.2817 22.0805 73.5092 21.7931C73.6349 21.6314 74.0899 20.9669 74.515 20.3083L75.2933 19.1228L75.3233 20.5837L75.3532 22.0445L75.7304 22.0625L76.1016 22.0805L76.0896 19.997L76.0717 17.9135L75.7424 17.8955C75.5628 17.8895 75.3831 17.9015 75.3472 17.9254Z" fill="#C9A24D"/>
<path d="M69.7254 17.9973L69.5458 18.0332V20.0329V22.0385L69.7433 22.0864C69.8451 22.1164 70.0247 22.1164 70.1325 22.0864L70.3241 22.0385L70.3421 20.3502L70.354 18.6618H71.0785C71.4736 18.6618 71.8508 18.6319 71.9166 18.602C72.0424 18.5301 72.0723 18.2487 71.9705 18.0572C71.9107 17.9494 71.8388 17.9434 70.9048 17.9494C70.354 17.9554 69.8272 17.9733 69.7254 17.9973Z" fill="#C9A24D"/>
<path d="M49.6089 18.0691C48.7348 18.1469 48.1421 18.59 48.1421 19.1647C48.1421 19.3563 48.154 19.3743 48.3815 19.4102C48.651 19.4581 48.8605 19.4042 48.8605 19.2965C48.8605 19.1588 49.2736 18.7876 49.5071 18.7277C50.016 18.584 50.5489 18.7097 50.6566 18.9911C50.6925 19.0809 50.7165 19.2665 50.7165 19.4102C50.7165 19.7215 50.7524 19.7036 49.8184 19.8293C48.5432 20.0029 48.166 20.2005 47.9924 20.7693C47.8786 21.1584 47.8786 21.362 47.9924 21.6434C48.178 22.0804 48.4714 22.29 49.0042 22.3499C49.4532 22.4037 49.9861 22.284 50.3932 22.0385L50.7225 21.841L50.8183 22.0505C50.9201 22.2541 50.926 22.2601 51.2434 22.2421L51.5726 22.2241L51.5607 20.7573C51.5547 19.9491 51.5367 19.1588 51.5128 19.0031C51.4709 18.6618 51.2972 18.3804 51.0338 18.2308C50.8003 18.0931 50.1657 18.0212 49.6089 18.0691ZM50.6925 20.6196C50.6327 21.1405 50.5668 21.2542 50.1956 21.4758C49.9082 21.6554 49.8005 21.6853 49.4832 21.6853C48.9922 21.6853 48.7647 21.5356 48.7767 21.2183C48.7827 20.9489 48.9264 20.7274 49.1718 20.6016C49.3754 20.4939 50.2735 20.2903 50.5608 20.2843L50.7285 20.2783L50.6925 20.6196Z" fill="#C9A24D"/>
<path d="M56.8413 18.1469C56.4461 18.3325 56.0151 18.7636 55.8534 19.1288C55.6977 19.488 55.6439 20.3202 55.7456 20.7633C55.9013 21.4458 56.2426 21.8649 56.8652 22.1463C57.2664 22.3319 58.1105 22.3379 58.5057 22.1523C59.1283 21.8709 59.5055 21.338 59.6372 20.5537C59.7749 19.7994 59.5115 18.8115 59.0864 18.4523C58.6913 18.123 58.4518 18.0392 57.7812 18.0212C57.2125 17.9973 57.1227 18.0092 56.8413 18.1469ZM58.1165 18.7157C58.5835 18.9312 58.799 19.3743 58.799 20.1406C58.799 21.1165 58.4099 21.6134 57.6495 21.6134C57.0029 21.6134 56.6197 21.2003 56.5479 20.416C56.482 19.7215 56.7455 18.9851 57.1406 18.7696C57.4819 18.59 57.7992 18.572 58.1165 18.7157Z" fill="#C9A24D"/>
<path d="M60.631 18.0751C60.6131 18.117 60.5891 18.8235 60.5711 19.6437C60.5412 20.6256 60.5053 21.1884 60.4574 21.2901C60.4095 21.3919 60.3137 21.4578 60.1461 21.4997C59.8587 21.5655 59.8168 21.6134 59.8168 21.9128C59.8168 22.1044 59.8407 22.1463 59.9844 22.2002C60.188 22.284 60.7388 22.1822 60.9543 22.0265C61.2836 21.7871 61.3315 21.5655 61.3794 20.0987C61.4033 19.3563 61.4273 18.7516 61.4273 18.7456C61.4512 18.7097 62.7983 18.6678 62.96 18.6977L63.1695 18.7337V20.4041C63.1695 22.3019 63.1396 22.1942 63.6964 22.1463L64.0077 22.1223L63.9957 20.0808L63.9778 18.0332L62.3134 18.0152C61.0142 18.0032 60.649 18.0152 60.631 18.0751Z" fill="#C9A24D"/>
<path d="M31.7076 18.147C31.5759 18.1889 31.3843 18.2667 31.2825 18.3206C31.031 18.4523 30.6119 18.9193 30.4802 19.2186C30.3246 19.5719 30.2228 20.2484 30.2707 20.6376C30.3665 21.3919 30.6838 21.9068 31.2705 22.2301C31.5579 22.3858 31.6357 22.4038 32.1566 22.4038C32.6236 22.4038 32.7793 22.3798 33.0427 22.2601C33.5336 22.0385 33.9467 21.4698 33.9527 21.0207C33.9527 20.8052 33.8749 20.7573 33.5276 20.7573C33.3061 20.7573 33.2941 20.7693 33.1445 21.0866C32.899 21.5955 32.45 21.841 31.983 21.7152C31.3364 21.5416 31.037 20.8651 31.1987 19.9191C31.3005 19.3084 31.5459 18.9672 31.965 18.8235C32.4859 18.6559 32.9289 18.8355 33.1804 19.3264C33.2941 19.5539 33.3061 19.5599 33.5216 19.524C33.8509 19.4641 33.9527 19.3923 33.9527 19.2246C33.9527 18.8055 33.4977 18.3086 32.9708 18.1529C32.6116 18.0452 32.0369 18.0452 31.7076 18.147Z" fill="#C9A24D"/>
<path d="M39.2632 18.1469C38.4849 18.4283 38.0479 19.0929 37.982 20.1107C37.9521 20.5477 37.97 20.6974 38.0838 21.0566C38.3951 22.0325 39.2872 22.5594 40.305 22.3738C40.7899 22.284 41.0893 22.1283 41.4126 21.799C41.8137 21.3859 41.9395 20.9908 41.9454 20.1586C41.9454 19.494 41.9395 19.4521 41.7479 19.0629C41.5263 18.6139 41.1911 18.3146 40.7241 18.1529C40.3948 18.0392 39.5746 18.0392 39.2632 18.1469ZM40.4786 18.8295C40.9456 19.0629 41.203 19.7574 41.0893 20.4759C41.0115 20.9489 40.9516 21.1045 40.742 21.35C40.3708 21.793 39.6464 21.8469 39.2333 21.4578C38.7543 21.0087 38.6585 19.7874 39.0597 19.1887C39.353 18.7636 40.0116 18.59 40.4786 18.8295Z" fill="#C9A24D"/>
<path d="M52.0935 18.1529C52.0097 18.2547 52.0636 18.6678 52.1713 18.7336C52.2132 18.7576 52.4767 18.7815 52.764 18.7815H53.2849L53.3268 19.0031C53.3508 19.1288 53.3568 19.7095 53.3388 20.3082C53.3208 20.901 53.3208 21.5715 53.3448 21.805L53.3807 22.2241H53.7399H54.0992L54.1291 20.4938L54.159 18.7636L54.6799 18.7756C55.3624 18.7935 55.4582 18.7396 55.4343 18.3744L55.4163 18.093L53.7938 18.0751C52.4048 18.0631 52.1594 18.0751 52.0935 18.1529Z" fill="#C9A24D"/>
<path d="M34.4197 18.1889C34.3 18.2547 34.282 18.4523 34.3718 18.6858C34.4257 18.8355 34.4437 18.8415 35.0005 18.8415H35.5692V20.5777C35.5692 22.5474 35.5333 22.4277 36.0662 22.3379L36.3775 22.284L36.3954 20.5597L36.4074 18.8415H36.9642C37.2636 18.8415 37.545 18.8175 37.5809 18.7936C37.6886 18.7277 37.7425 18.3864 37.6647 18.2487C37.6048 18.129 37.5569 18.123 36.0602 18.123C35.1262 18.123 34.4796 18.1529 34.4197 18.1889Z" fill="#C9A24D"/>
<path d="M42.7358 18.1649C42.7178 18.1948 42.6998 19.1288 42.6879 20.2484L42.6639 22.284L43.0411 22.302L43.4123 22.3199V20.8471C43.4123 20.0389 43.4303 19.3803 43.4602 19.3803C43.4841 19.3803 43.7236 20.0329 43.993 20.8291L44.484 22.284L44.8073 22.302C45.1725 22.3199 45.2144 22.29 45.3461 21.8948C45.394 21.7452 45.5676 21.2902 45.7353 20.877C45.8969 20.4639 46.0945 19.9371 46.1723 19.7096L46.316 19.2905L46.334 20.8052L46.3459 22.3199L46.7231 22.302L47.0943 22.284L47.1362 20.428C47.1542 19.4042 47.1542 18.4762 47.1303 18.3625L47.0883 18.1529H46.5615H46.0346L45.6036 19.3204C45.3641 19.961 45.1186 20.6316 45.0587 20.7992C44.9929 20.9728 44.927 21.1165 44.9031 21.1165C44.8791 21.1165 44.6696 20.5178 44.4301 19.7814C44.1906 19.051 43.9571 18.3804 43.9152 18.2847C43.8314 18.129 43.8134 18.123 43.2926 18.123C42.9992 18.123 42.7477 18.141 42.7358 18.1649Z" fill="#C9A24D"/>
</svg>
