<svg width="368" height="122" viewBox="0 0 368 122" fill="none" xmlns="http://www.w3.org/2000/svg">
<rect width="368" height="122" rx="20" fill="white"/>
<path d="M87.5674 9.13162C85.1914 9.52488 83.4218 10.6227 77.523 15.3254C75.7697 16.7182 73.6232 18.4223 72.7711 19.0941C71.9191 19.7659 70.6246 20.7982 69.9037 21.3881C67.7571 23.1086 63.0872 26.8609 62.5301 27.3033C60.8588 28.6305 59.8429 29.6628 60.0068 29.8594C60.2198 30.1216 61.2848 29.6792 65.4632 27.6801C68.9369 26.0088 70.4935 25.2059 73.8362 23.4199C77.6213 21.3881 78.3423 21.0112 82.029 18.9794C86.0271 16.8001 87.1577 16.3249 88.4358 16.3249C90.2218 16.3249 91.1886 17.308 92.0734 20.0936C92.778 22.2565 93.1385 24.8127 93.9086 33.0382C94.4821 39.1501 94.9736 41.9848 95.285 41.0508C95.5635 40.2479 96.9235 29.3515 97.2676 25.0912C97.4151 23.3707 97.5953 21.3061 97.6773 20.5032C97.9231 18.2584 97.8739 17.177 97.497 15.8333C96.7597 13.1461 95.2522 11.1634 93.0893 10.0328C91.3033 9.08247 89.55 8.80391 87.5674 9.13162Z" fill="#C9A24D"/>
<path d="M204.282 14.3095C202.021 14.3423 200.776 14.4242 200.628 14.5553C200.497 14.6536 200.415 14.9649 200.448 15.2435C200.481 15.6367 200.661 15.8661 201.316 16.2758C203.151 17.4883 203.037 18.0126 200.022 21.8141C198.563 23.6657 198.203 24.1245 196.941 25.7467C194.893 28.3684 192.878 30.8917 192.714 30.9901C192.501 31.1211 192.501 29.0729 192.714 22.7481C192.878 17.603 192.943 17.2917 193.795 16.7018C194.909 15.9153 195.172 15.6367 195.172 15.1943C195.172 14.3587 195.139 14.3587 189.748 14.3587C184.21 14.3587 184.292 14.3423 184.39 15.3746C184.439 15.8497 184.554 15.9808 185.389 16.4069C185.914 16.6854 186.422 17.0295 186.52 17.1934C186.618 17.39 186.618 19.2416 186.504 22.7645C186.389 25.6647 186.241 30.3182 186.16 33.1038C185.996 38.7896 186.012 38.7404 184.75 39.2976C183.669 39.7727 183.374 40.9033 184.242 41.1983C184.439 41.2638 186.782 41.2802 189.453 41.2311C194.696 41.1491 194.844 41.1164 194.844 40.2479C194.844 39.74 194.631 39.527 193.992 39.3631C193.091 39.1501 192.353 37.6262 192.55 36.4465C192.665 35.8074 192.894 35.4797 196.155 31.4161C199.743 26.9428 200.939 25.4189 201.611 24.485C201.988 23.9606 202.349 23.5346 202.43 23.5346C202.578 23.5346 202.578 23.7804 202.365 31.2358C202.25 34.9881 202.103 37.7737 201.988 38.1014C201.873 38.4619 201.546 38.8551 201.07 39.1829C200.3 39.7236 200.038 40.3626 200.399 40.805C200.644 41.1 210.23 41.3294 210.738 41.0672C211.426 40.7067 210.918 39.2648 210.099 39.2648C209.525 39.2648 208.804 38.4127 208.69 37.5607C208.624 37.1347 208.69 32.432 208.821 27.1067C209.099 16.1938 208.985 16.9967 210.427 16.1447C211.049 15.7842 211.148 15.6531 211.148 15.1779C211.148 14.3914 210.672 14.1948 209.017 14.2276C208.297 14.2603 206.166 14.2931 204.282 14.3095Z" fill="#C9A24D"/>
<path d="M176.656 14.8666C174.378 15.0632 166.792 15.6367 161.335 15.9972C158.73 16.1775 156.403 16.3741 156.19 16.4233L155.813 16.5052L155.928 19.5693C155.994 21.257 156.125 22.7645 156.207 22.9447C156.354 23.2069 156.502 23.2397 157.419 23.1577C157.993 23.0922 158.599 22.9775 158.763 22.8956C158.927 22.8136 159.271 22.2238 159.5 21.6011C160.5 19.0777 161.139 18.537 163.466 18.3404L164.662 18.2421L164.76 19.4546C164.907 21.1423 165.35 33.5298 165.399 36.8397C165.432 39.5434 165.432 39.5761 165.022 40.0021C164.793 40.2479 164.35 40.5429 164.039 40.674C163.728 40.805 163.416 41.0017 163.351 41.1164C163.154 41.4277 163.203 42.1159 163.449 42.46C163.662 42.7549 163.744 42.7549 166.759 42.4764C168.463 42.3289 170.79 42.1323 171.953 42.0667C174.198 41.9193 174.526 41.7882 174.526 41.0672C174.526 40.5593 174.149 40.1824 173.477 40.0185C173.215 39.953 172.805 39.6908 172.56 39.445C172.183 39.0846 172.084 38.806 172.002 37.9376C171.888 36.5612 170.921 19.2088 170.921 18.4059V17.7669L172.723 17.8324L174.509 17.8816L175.181 18.537C175.558 18.8975 176.132 19.7331 176.443 20.3886C176.771 21.044 177.18 21.6503 177.328 21.7486C177.721 21.9452 178.622 21.9288 179.261 21.7158C179.72 21.5519 179.769 21.47 179.769 20.8638C179.753 19.5201 179.458 15.2435 179.343 14.9649C179.229 14.6536 179.114 14.6536 176.656 14.8666Z" fill="#C9A24D"/>
<path d="M225.599 15.3255C223.24 15.8498 221.618 16.7674 219.75 18.619C218.505 19.8479 218.029 20.4542 217.489 21.4865C216.129 24.1737 215.555 27.2378 215.686 31.1212C215.883 36.4793 217.652 39.7728 221.257 41.5589C223.535 42.6731 227.271 43.3449 229.909 43.1155C231.482 42.9844 234.661 42.2798 234.923 42.0177C235.201 41.7227 235.857 36.4629 235.627 36.2335C235.546 36.1516 234.89 36.0533 234.186 36.0205L232.907 35.955L232.203 37.2003C231.318 38.8061 230.876 39.3304 230.024 39.7401C228.254 40.5921 226.042 40.2316 224.633 38.8552C223.06 37.3314 222.322 34.8735 222.322 31.154C222.322 28.2374 222.716 25.4518 223.469 23.1578C224.715 19.3891 226.697 17.6031 229.385 17.8489C231.203 18.0127 232.105 18.7337 233.17 20.8638C233.53 21.6012 233.907 22.2566 234.005 22.3058C234.382 22.5352 236.119 22.4696 236.381 22.2238C236.529 22.06 236.709 21.2407 236.873 19.8479C237.233 16.751 237.25 16.8493 236.414 16.4889C236.021 16.3086 234.775 15.9481 233.661 15.6696C230.941 14.9814 227.762 14.8503 225.599 15.3255Z" fill="#C9A24D"/>
<path d="M60.7605 16.161C56.6969 16.5215 52.1581 17.521 49.2742 18.7008C42.2284 21.5519 39.0496 25.337 39.0004 30.9408C38.9677 34.8406 40.8028 38.7404 45.9807 45.7371C48.8646 49.6204 51.1422 53.3236 52.2892 55.9453C54.6159 61.3362 55.3369 66.3174 56.4675 85.3902C56.746 89.8799 57.0082 92.5508 57.5489 96.4505C58.2208 101.284 59.122 103.791 61.5962 107.74C63.5297 110.837 65.1519 113 65.5615 113C65.9056 113 65.7254 112.23 63.841 105.807C62.5302 101.301 62.3172 99.1869 62.1697 88.5854C62.0878 83.129 62.1369 80.3107 62.3663 75.5589C63.1528 59.206 61.76 54.0773 53.5181 42.8696C49.9624 38.0358 47.9797 34.7915 47.4554 32.9563C47.2424 32.2517 47.1932 31.6454 47.2588 30.7442C47.5209 27.0411 49.5364 25.2878 55.8612 23.2724C60.7769 21.6994 65.0044 19.8478 67.5442 18.1928C69.0025 17.2261 69.1336 17.0622 68.642 16.7673C67.7408 16.1774 63.8246 15.8825 60.7605 16.161Z" fill="#C9A24D"/>
<path d="M242.625 16.6035C242.494 17.0132 241.871 20.9785 241.757 22.0763C241.675 22.8792 241.708 23.0267 241.97 23.1741C242.396 23.3872 243.772 23.5674 244.149 23.4527C244.313 23.4035 244.87 22.699 245.394 21.8797C246.591 20.0445 247.017 19.7659 248.524 19.7823C249.147 19.7823 249.95 19.8315 250.31 19.897C250.949 20.0117 250.965 20.0445 250.965 20.6671C250.949 21.2734 250.081 26.6151 249.72 28.2373C249.638 28.6142 249.13 31.4653 248.606 34.5785C247.639 40.1169 247.41 41.2966 247.164 41.6571C246.984 41.9029 246.05 42.3781 245.722 42.3781C244.936 42.3781 244.46 43.9347 245.198 44.0986C245.738 44.2133 249.589 44.9015 252.735 45.4422C255.848 45.9665 256.012 45.9338 256.094 44.8851C256.143 44.2624 256.111 44.2133 255.373 43.8364C254.947 43.6234 254.456 43.2465 254.275 43.0007C253.964 42.5747 253.948 42.4764 254.144 40.8706C254.259 39.9366 254.636 37.4788 254.996 35.4142C255.34 33.3332 256.012 29.3515 256.471 26.5332C256.946 23.7313 257.372 21.339 257.438 21.2406C257.602 20.9785 259.453 21.3226 260.387 21.7978C261.436 22.3221 261.895 23.2397 262.435 25.8614C262.501 26.2055 262.665 26.3366 263.14 26.4677C263.976 26.7134 265.221 26.6971 265.418 26.4349C265.68 26.1236 266.515 20.2575 266.335 20.0773C266.155 19.897 266.515 19.9626 256.455 18.3568C248.639 17.1279 243.346 16.325 242.937 16.325C242.805 16.325 242.674 16.456 242.625 16.6035Z" fill="#C9A24D"/>
<path d="M144.737 17.5539C140.378 18.1929 140.329 18.2093 140.116 18.6025C139.854 19.1269 140.165 19.6512 141.017 20.0936C142.197 20.6999 142.312 21.0604 142.819 25.4845C143.311 29.6628 143.311 29.5809 142.328 29.5973C142.066 29.5973 140.149 29.8922 138.068 30.2527C136.003 30.5968 134.25 30.8426 134.201 30.7771C134.037 30.5804 133.217 22.4368 133.316 22.0108C133.381 21.7814 133.709 21.3717 134.07 21.0932C134.577 20.6671 134.709 20.4541 134.709 20.0281C134.709 18.9958 134.643 18.9958 129.908 19.7495C127.548 20.1264 125.369 20.4869 125.074 20.536C124.468 20.6344 124.189 21.1095 124.386 21.6503C124.451 21.8305 124.861 22.1582 125.303 22.3876C125.86 22.6662 126.204 22.9775 126.385 23.3871C126.663 23.9443 127.696 30.7934 128.154 35.0865C128.253 36.0696 128.482 38.085 128.662 39.5434C129.105 43.3121 129.088 44.1805 128.548 44.8359C128.302 45.1145 127.909 45.4422 127.646 45.5897C127.106 45.8682 126.925 46.3925 127.155 47.0152C127.368 47.5723 127.696 47.5723 129.891 47.1299C130.792 46.9497 132.808 46.5728 134.381 46.2942C137.789 45.7207 137.773 45.7207 137.904 45.3439C138.084 44.7868 137.707 44.2133 136.937 43.8855C136.544 43.7053 136.085 43.3776 135.937 43.1482C135.626 42.673 134.43 33.7265 134.659 33.5298C134.807 33.3988 140.722 32.4484 142.443 32.2845C143.508 32.1862 143.54 32.1862 143.622 32.5631C143.803 33.3824 144.376 39.6417 144.376 40.8542V42.0995L143.622 42.8369C143.032 43.394 142.852 43.6725 142.869 44.0494C142.885 44.5901 143.164 45.0162 143.442 44.9178C143.557 44.8687 145.769 44.541 148.391 44.1641C150.996 43.8036 153.241 43.4268 153.355 43.3284C153.486 43.2137 153.552 42.9024 153.519 42.5583C153.47 42.0176 153.405 41.952 152.716 41.7226C151.832 41.4441 151.487 41.1819 151.176 40.5593C150.93 40.0841 148.8 21.9944 148.8 20.3886C148.8 19.5693 148.833 19.5038 149.636 18.7664C150.324 18.1437 150.455 17.9143 150.406 17.5375C150.357 17.0787 150.324 17.0623 149.374 17.0295C148.833 17.0295 146.752 17.2589 144.737 17.5539Z" fill="#C9A24D"/>
<path d="M106.362 24.4521C104.969 24.8618 103.773 25.2714 103.724 25.3697C103.658 25.468 103.56 25.9924 103.494 26.5495C103.281 28.5649 101.823 37.4951 100.61 44.2623C99.3979 51.1279 99.1685 51.898 98.0543 52.9959C97.235 53.8152 97.1531 54.3231 97.7429 54.913C98.2017 55.3718 97.6446 55.4701 102.429 54.0773C103.822 53.6677 105.264 53.2417 105.624 53.1433C106.214 52.9631 106.28 52.8812 106.329 52.3732C106.395 51.7342 106.067 51.3901 105.411 51.3901C104.789 51.3901 103.904 50.8985 103.658 50.3906C103.527 50.1448 103.412 49.5057 103.412 48.9814C103.412 47.8672 103.822 45.1799 104.035 44.9669C104.101 44.9014 104.592 44.6884 105.116 44.5081C106.231 44.1149 111.884 42.5419 112.195 42.5419C112.523 42.5419 112.998 43.3284 113.883 45.2946C115.079 47.9327 115.079 47.818 114.079 48.7356C113.211 49.5385 113.063 49.9482 113.473 50.5053C113.703 50.8166 113.735 50.8166 115.489 50.3414C116.455 50.0792 118.88 49.4566 120.863 48.9486C124.206 48.0966 124.468 47.9983 124.517 47.6378C124.632 46.8513 124.419 46.4908 123.681 46.2942C121.977 45.8354 121.42 45.2455 119.651 41.9684C119.257 41.2474 118.504 39.9529 117.996 39.1009C117.488 38.2488 116.701 36.8724 116.275 36.0695C115.833 35.2503 114.735 33.3331 113.817 31.8093C112.9 30.269 111.474 27.8276 110.638 26.3529C109.786 24.8946 109.065 23.6984 109 23.7148C108.951 23.7148 107.755 24.0589 106.362 24.4521ZM106.706 31.9731C106.984 32.5139 107.722 33.8083 108.328 34.8406C109.901 37.5279 111.146 39.9529 111.032 40.0676C110.884 40.1987 104.33 42.0503 104.264 41.9684C104.199 41.9192 105.837 31.5963 105.969 31.0883C106.067 30.7934 106.067 30.8098 106.706 31.9731Z" fill="#C9A24D"/>
<path d="M87.9275 27.2214C87.567 27.3361 86.42 27.6802 85.3878 27.9588C84.3555 28.2373 82.2089 28.8272 80.6359 29.2696C74.1308 31.0884 72.8364 31.4325 70.4932 31.9732C69.1332 32.2682 67.8715 32.6123 67.6913 32.7106C67.0359 33.0547 67.4291 33.9231 68.3139 34.1034C70.0672 34.4639 70.2802 34.6441 71.1159 36.5121C73.5246 41.8538 75.2123 53.6186 74.3275 59.0423C73.754 62.5652 72.8855 64.2365 70.2638 66.8091L68.658 68.4148L68.4778 70.6761C68.1173 75.6409 68.3139 109.903 68.7072 110.149C68.9694 110.313 69.4773 109.707 69.7231 108.92C70.1327 107.675 70.2311 106.741 71.2142 95.6313C71.4436 93.0588 71.7385 89.8964 71.8696 88.5855C72.1809 85.5706 72.525 81.5397 72.8528 77.3614C73.3443 71.0857 73.7376 69.7093 75.3925 68.2182C76.6214 67.1204 77.6374 66.678 87.1902 63.237C89.6808 62.3358 91.3521 62.1555 92.7777 62.6143C95.1208 63.3681 97.3001 65.1705 99.037 67.7758C99.9218 69.1194 100.135 69.3324 100.561 69.3816C101.577 69.4799 101.56 69.2669 100.397 65.2033C99.8235 63.1551 99.25 61.0905 99.1353 60.6481C98.7748 59.1242 98.6601 59.0095 97.3493 58.7801C96.1039 58.5835 95.1536 58.1738 94.6948 57.6823C93.8919 56.7811 93.1873 54.6182 90.7295 45.4094C88.6157 37.4296 87.3213 32.0388 87.3049 31.0229L87.2721 30.0397L88.4682 28.9583C89.3858 28.1226 89.648 27.7785 89.648 27.418C89.648 27.0248 89.5825 26.9756 89.1237 26.992C88.8287 26.992 88.288 27.1067 87.9275 27.2214ZM80.7506 33.9395C81.1603 35.4142 82.7661 41.3786 83.8311 45.4914C84.2244 46.9825 84.9945 49.9319 85.5516 52.0456C87.2066 58.3705 87.354 58.9603 87.354 59.2389C87.354 59.5175 85.9612 60.0909 83.4215 60.8775C82.8316 61.0577 81.0456 61.6148 79.4398 62.1228C77.834 62.6307 76.474 63.024 76.4248 62.9748C76.3757 62.9257 76.5395 61.8278 76.7853 60.5334C77.3916 57.4037 77.5227 52.9141 77.113 49.4239C76.5887 44.8523 75.8513 40.9034 74.7207 36.8234C74.3602 35.5289 74.0981 34.3655 74.1472 34.2672C74.18 34.1525 74.5405 33.9887 74.9337 33.874C75.3106 33.7757 76.6051 33.4316 77.7684 33.1202C78.9482 32.8089 80.0133 32.5795 80.1444 32.5959C80.2918 32.6123 80.5212 33.1202 80.7506 33.9395Z" fill="#C9A24D"/>
<path d="M270.627 27.9751C270.562 28.0734 270.513 28.4011 270.496 28.7124C270.48 29.1712 270.611 29.417 271.201 30.0069C271.741 30.564 271.905 30.8426 271.889 31.2358C271.873 31.8421 271.217 34.4474 269.874 39.1828C268.284 44.7867 268.169 44.9997 266.58 45.4422C265.826 45.6552 265.564 45.8026 265.449 46.114C265.171 46.8349 265.613 47.2282 267.055 47.5231C268.153 47.7689 270.349 48.3424 274.199 49.4075C274.888 49.5877 275.215 49.6205 275.428 49.4894C275.92 49.1781 275.854 48.5226 275.232 47.6214C274.593 46.6875 274.494 46.032 274.904 45.4258C275.133 45.0489 277.509 43.2301 280.786 40.9033C281.606 40.3135 282.556 39.6089 282.9 39.3139C284.145 38.2816 284.178 38.0522 282.212 44.672C281.409 47.3757 281.327 47.6051 280.868 48.0966C280.459 48.5226 279.574 48.9323 279.082 48.9323C278.722 48.9323 278.492 49.473 278.607 50.0301C278.673 50.3742 279.131 50.5217 284.686 52.0456L288.438 53.0615L288.832 52.6846C289.422 52.1275 289.323 51.7015 288.406 50.8494C287.423 49.9318 287.373 49.6205 288.012 47.2937C288.242 46.4417 288.799 44.2952 289.241 42.5419C290.323 38.3472 290.929 36.4137 291.339 35.8402C291.535 35.5616 292.06 35.2011 292.584 34.9881C293.223 34.726 293.518 34.4966 293.584 34.2344C293.731 33.6609 293.567 33.4151 292.961 33.284C292.666 33.2185 290.683 32.6941 288.57 32.1206C284.49 31.0064 283.916 30.9245 283.752 31.3341C283.49 32.0059 283.654 32.645 284.227 33.2021C285.243 34.1852 285.03 34.7587 283.129 36.086C282.376 36.6103 280.819 37.7409 279.639 38.6094C276.755 40.7395 275.953 41.2802 275.838 41.1655C275.789 41.1163 276.051 40.0185 276.444 38.7404C278.41 32.137 278.427 32.0715 279.459 31.7274C280.196 31.4816 280.573 31.0392 280.508 30.4657C280.459 30.0069 280.459 30.0069 276.198 28.9091C271.955 27.8276 270.824 27.631 270.627 27.9751Z" fill="#C9A24D"/>
<path d="M305.053 28.86C304.562 29.3515 304.578 29.7612 305.103 30.7935C305.512 31.6291 305.594 31.9241 305.512 32.4648C305.381 33.2513 297.008 49.981 296.189 51.0952C295.615 51.8818 294.96 52.2095 293.944 52.2095C293.354 52.2095 292.994 52.6027 292.994 53.2581C292.994 53.7333 293.092 53.848 293.78 54.2085C294.206 54.4379 295.173 54.8967 295.943 55.208C296.713 55.5194 297.893 56.0437 298.565 56.355C302.776 58.2885 302.874 58.3213 303.153 57.797C303.431 57.2562 303.333 56.7483 302.809 55.9782C302.12 54.9786 302.219 54.5362 303.792 51.4066C304.48 49.9974 305.414 48.0639 305.856 47.0808C306.299 46.114 306.692 45.3275 306.758 45.3275C306.807 45.3439 307.249 45.5897 307.741 45.8846C309.33 46.835 310.035 48.1622 310.035 50.2596C310.035 51.0133 309.822 53.7333 309.379 58.7473C309.281 59.7796 309.265 60.6808 309.33 60.7464C309.625 61.0249 316.933 64.6625 317.228 64.6625C317.638 64.6625 317.9 64.3184 318.014 63.6302C318.096 63.1223 318.031 63.0076 317.572 62.6799C316.507 61.8934 316.507 61.8934 316.507 55.6504C316.507 50.2596 316.491 49.9483 316.147 49.0634C315.671 47.7854 314.95 46.835 313.951 46.1468C313.148 45.6061 313.132 45.5733 313.508 45.4258C315.344 44.7049 317.375 43.5415 318.948 42.3126C320.98 40.7068 322.062 40.248 323.045 40.5757C323.815 40.8215 324.126 41.2311 324.454 42.4109C324.683 43.2629 324.815 43.4596 325.29 43.7217C326.142 44.1805 326.977 44.115 327.371 43.5579C327.846 42.9024 329.37 39.953 329.37 39.7072C329.37 38.7405 325.109 36.9381 322.815 36.9217C320.866 36.9217 319.358 37.6918 316.261 40.2971C312.656 43.3121 310.559 44.0494 308.265 43.0991L307.724 42.8697L309.478 39.4778C312.05 34.4802 312.083 34.4311 313.574 34.2508C314.541 34.1198 315.114 33.792 315.114 33.366C315.114 32.9236 314.836 32.7761 311.264 31.1867C309.56 30.4166 307.577 29.5318 306.872 29.2041C305.414 28.5323 305.398 28.5323 305.053 28.86Z" fill="#C9A24D"/>
<path d="M254.488 57.7806C253.357 57.8461 252.226 57.9936 251.948 58.0919C250.358 58.731 249.572 59.8452 249.572 61.4837C249.572 62.811 250.211 63.8433 251.325 64.3676C251.768 64.5806 252.144 64.7609 252.177 64.7772C252.226 64.81 252.063 65.0394 251.833 65.2852C251.26 65.9079 249.621 68.3493 249.49 68.7753C249.408 69.0047 249.457 69.185 249.588 69.2669C249.85 69.4308 250.948 69.4635 251.456 69.3161C251.784 69.2341 252.751 67.9724 253.816 66.2356C254.422 65.2688 254.438 65.2524 256.143 65.0722L257.06 64.9739L257.158 66.9565C257.208 68.1363 257.322 69.0375 257.437 69.1686C257.568 69.3161 257.929 69.4144 258.338 69.4144C259.665 69.4144 259.567 69.8732 259.567 63.6139C259.567 59.4683 259.518 57.9608 259.371 57.8134C259.158 57.6003 257.912 57.6003 254.488 57.7806ZM257.109 61.3854V63.1715L256.519 63.2862C255.585 63.4664 253.144 63.2698 252.571 62.9748C251.866 62.598 251.604 61.7951 251.931 61.0086C252.357 59.9763 253.291 59.6322 255.766 59.5994L257.109 59.583V61.3854Z" fill="#C9A24D"/>
<path d="M220.864 58.141C219.128 58.354 217.62 59.4354 216.85 61.0248C216.424 61.8933 216.391 62.1063 216.391 64.007C216.391 65.9241 216.424 66.1208 216.85 66.9728C217.718 68.7261 219.291 69.742 221.323 69.8731C224.256 70.0533 226.403 68.4311 227.058 65.5309C227.533 63.3516 227.091 61.0248 225.911 59.6484C224.862 58.4195 223.011 57.8624 220.864 58.141ZM223.257 60.2875C223.715 60.5333 224.06 60.9265 224.371 61.5328C224.764 62.2865 224.83 62.5979 224.83 63.7449C224.83 64.4658 224.748 65.367 224.649 65.7275C224.404 66.6287 223.142 67.8576 222.339 68.0051C220.799 68.2837 219.128 67.1039 218.783 65.4817C218.275 63.1058 218.996 60.7791 220.471 60.14C221.274 59.7959 222.519 59.8615 223.257 60.2875Z" fill="#C9A24D"/>
<path d="M245.214 58.059C245.05 58.1737 243.837 59.927 241.085 64.007C240.511 64.8591 239.954 65.6292 239.872 65.7275C239.757 65.8422 239.725 65.0885 239.757 63.5155C239.79 62.2046 239.807 60.4513 239.774 59.6157L239.741 58.1082H238.938C237.513 58.1082 237.611 57.846 237.627 61.9424C237.644 63.9251 237.693 66.4157 237.758 67.448L237.857 69.3324L238.709 69.3815C239.544 69.4307 239.561 69.4307 240.183 68.6442C240.527 68.2017 241.773 66.3829 242.936 64.5805L245.066 61.3362L245.148 65.3343L245.23 69.3324L246.262 69.3815L247.278 69.4307L247.246 63.7285L247.196 58.0263L246.295 57.9771C245.804 57.9607 245.312 57.9935 245.214 58.059Z" fill="#C9A24D"/>
<path d="M229.828 58.2557L229.336 58.354V63.8268V69.316L229.877 69.4471C230.155 69.529 230.647 69.529 230.942 69.4471L231.466 69.316L231.515 64.6953L231.548 60.0745H233.531C234.612 60.0745 235.645 59.9926 235.825 59.9107C236.169 59.714 236.251 58.9439 235.972 58.4196C235.808 58.1246 235.612 58.1083 233.056 58.1246C231.548 58.141 230.106 58.1902 229.828 58.2557Z" fill="#C9A24D"/>
<path d="M174.771 58.4523C172.379 58.6653 170.757 59.8779 170.757 61.4509C170.757 61.9752 170.79 62.0244 171.412 62.1227C172.15 62.2538 172.723 62.1063 172.723 61.8114C172.723 61.4345 173.854 60.4186 174.493 60.2548C175.886 59.8615 177.344 60.2056 177.639 60.9757C177.737 61.2215 177.803 61.7295 177.803 62.1227C177.803 62.9748 177.901 62.9256 175.345 63.2697C171.855 63.7449 170.822 64.2856 170.347 65.8422C170.036 66.9073 170.036 67.4644 170.347 68.2345C170.855 69.4307 171.658 70.0042 173.116 70.168C174.345 70.3155 175.804 69.9878 176.918 69.316L177.819 68.7753L178.081 69.3488C178.36 69.9059 178.376 69.9223 179.245 69.8731L180.146 69.824L180.113 65.8095C180.097 63.5974 180.048 61.4345 179.982 61.0085C179.867 60.0745 179.392 59.3044 178.671 58.8947C178.032 58.5179 176.295 58.3213 174.771 58.4523ZM177.737 65.4326C177.573 66.8582 177.393 67.1695 176.377 67.7758C175.591 68.2673 175.296 68.3492 174.427 68.3492C173.084 68.3492 172.461 67.9396 172.494 67.0712C172.51 66.3338 172.903 65.7275 173.575 65.3835C174.132 65.0885 176.59 64.5314 177.377 64.515L177.835 64.4986L177.737 65.4326Z" fill="#C9A24D"/>
<path d="M194.565 58.6653C193.484 59.1733 192.304 60.3531 191.862 61.3526C191.435 62.3357 191.288 64.6133 191.567 65.8258C191.993 67.6938 192.927 68.8408 194.631 69.6109C195.729 70.1189 198.039 70.1353 199.12 69.6273C200.824 68.8572 201.857 67.3989 202.217 65.2524C202.594 63.1878 201.873 60.4841 200.71 59.501C199.628 58.5998 198.973 58.3704 197.138 58.3212C195.581 58.2557 195.335 58.2885 194.565 58.6653ZM198.055 60.222C199.333 60.8119 199.923 62.0244 199.923 64.1217C199.923 66.7926 198.858 68.1526 196.777 68.1526C195.008 68.1526 193.959 67.022 193.762 64.8755C193.582 62.9748 194.303 60.9593 195.384 60.3694C196.318 59.8779 197.187 59.8287 198.055 60.222Z" fill="#C9A24D"/>
<path d="M204.938 58.4687C204.889 58.5834 204.823 60.5169 204.774 62.7617C204.692 65.449 204.594 66.9892 204.462 67.2678C204.331 67.5463 204.069 67.7266 203.61 67.8413C202.824 68.0215 202.709 68.1526 202.709 68.9719C202.709 69.4962 202.775 69.6109 203.168 69.7584C203.725 69.9878 205.233 69.7092 205.822 69.2832C206.724 68.6278 206.855 68.0215 206.986 64.007C207.051 61.9752 207.117 60.3203 207.117 60.3039C207.183 60.2056 210.869 60.0909 211.312 60.1728L211.885 60.2711V64.8427C211.885 70.0369 211.803 69.742 213.327 69.6109L214.179 69.5454L214.146 63.9579L214.097 58.354L209.542 58.3048C205.986 58.2721 204.987 58.3048 204.938 58.4687Z" fill="#C9A24D"/>
<path d="M125.779 58.6654C125.418 58.7801 124.894 58.9931 124.616 59.1406C123.927 59.501 122.78 60.7791 122.42 61.5984C121.994 62.5652 121.715 64.4167 121.846 65.4818C122.109 67.5464 122.977 68.9555 124.583 69.8404C125.369 70.2664 125.582 70.3156 127.008 70.3156C128.286 70.3156 128.712 70.25 129.433 69.9223C130.777 69.316 131.907 67.7594 131.923 66.5305C131.923 65.9406 131.71 65.8095 130.76 65.8095C130.154 65.8095 130.121 65.8423 129.711 66.7107C129.04 68.1035 127.811 68.7753 126.533 68.4312C124.763 67.956 123.944 66.1044 124.386 63.5155C124.665 61.8442 125.336 60.9102 126.483 60.517C127.909 60.0582 129.122 60.5497 129.81 61.8933C130.121 62.516 130.154 62.5324 130.744 62.4341C131.645 62.2702 131.923 62.0736 131.923 61.6148C131.923 60.4678 130.678 59.1078 129.236 58.6818C128.253 58.3868 126.68 58.3868 125.779 58.6654Z" fill="#C9A24D"/>
<path d="M146.457 58.6653C144.327 59.4354 143.131 61.2542 142.951 64.0398C142.869 65.2359 142.918 65.6455 143.229 66.6287C144.082 69.2995 146.523 70.7415 149.309 70.2335C150.636 69.9877 151.455 69.5617 152.34 68.6605C153.438 67.5299 153.782 66.4484 153.798 64.1708C153.798 62.352 153.782 62.2373 153.257 61.1723C152.651 59.9433 151.734 59.1241 150.456 58.6817C149.554 58.3703 147.309 58.3703 146.457 58.6653ZM149.784 60.5332C151.062 61.1723 151.766 63.073 151.455 65.0393C151.242 66.3337 151.078 66.7598 150.505 67.4316C149.489 68.6441 147.506 68.7916 146.375 67.7265C145.065 66.4976 144.802 63.1549 145.9 61.5164C146.703 60.353 148.506 59.8778 149.784 60.5332Z" fill="#C9A24D"/>
<path d="M181.572 58.6816C181.343 58.9602 181.49 60.0908 181.785 60.271C181.9 60.3366 182.621 60.4021 183.407 60.4021H184.833L184.947 61.0084C185.013 61.3525 185.029 62.9419 184.98 64.5805C184.931 66.2026 184.931 68.0378 184.997 68.6769L185.095 69.8239H186.078H187.061L187.143 65.0884L187.225 60.353L188.651 60.3857C190.519 60.4349 190.781 60.2874 190.715 59.2879L190.666 58.5178L186.226 58.4686C182.424 58.4359 181.752 58.4686 181.572 58.6816Z" fill="#C9A24D"/>
<path d="M133.201 58.78C132.874 58.9603 132.825 59.501 133.07 60.14C133.218 60.5497 133.267 60.5661 134.791 60.5661H136.347V65.3179C136.347 70.7088 136.249 70.3811 137.707 70.1353L138.56 69.9878L138.609 65.2687L138.641 60.5661H140.165C140.985 60.5661 141.755 60.5005 141.853 60.435C142.148 60.2547 142.295 59.3208 142.082 58.9439C141.919 58.6162 141.787 58.5998 137.691 58.5998C135.135 58.5998 133.365 58.6817 133.201 58.78Z" fill="#C9A24D"/>
<path d="M155.961 58.7145C155.912 58.7964 155.863 61.3526 155.83 64.4167L155.764 69.9878L156.797 70.037L157.813 70.0861V66.0553C157.813 63.8432 157.862 62.0408 157.944 62.0408C158.009 62.0408 158.665 63.8268 159.402 66.0061L160.746 69.9878L161.63 70.037C162.63 70.0861 162.745 70.0042 163.105 68.9227C163.236 68.5131 163.711 67.2678 164.17 66.1372C164.613 65.0066 165.153 63.5646 165.366 62.942L165.76 61.795L165.809 65.9406L165.842 70.0861L166.874 70.037L167.89 69.9878L168.004 64.9083C168.054 62.1063 168.054 59.5666 167.988 59.2552L167.873 58.6817H166.431H164.99L163.81 61.8769C163.154 63.6302 162.483 65.4654 162.319 65.9242C162.138 66.3994 161.958 66.7926 161.893 66.7926C161.827 66.7926 161.254 65.1541 160.598 63.1386C159.943 61.1396 159.304 59.3044 159.189 59.0422C158.96 58.6162 158.91 58.5998 157.485 58.5998C156.682 58.5998 155.994 58.649 155.961 58.7145Z" fill="#C9A24D"/>
</svg>
