<svg width="232" height="232" viewBox="0 0 232 232" fill="none" xmlns="http://www.w3.org/2000/svg">
<rect width="232" height="232" rx="20" fill="white"/>
<path d="M46.6227 78.9539C44.9289 79.2343 43.6674 80.0169 39.4622 83.3693C38.2123 84.3622 36.6821 85.5771 36.0747 86.056C35.4673 86.5349 34.5445 87.2708 34.0305 87.6913C32.5003 88.9178 29.1712 91.5928 28.7741 91.9082C27.5826 92.8543 26.8584 93.5903 26.9752 93.7304C27.127 93.9173 27.8863 93.6019 30.865 92.1768C33.3414 90.9854 34.4511 90.413 36.834 89.1398C39.5323 87.6913 40.0463 87.4227 42.6745 85.9742C45.5247 84.4206 46.3307 84.0819 47.2418 84.0819C48.515 84.0819 49.2042 84.7827 49.835 86.7685C50.3373 88.3104 50.5943 90.1327 51.1433 95.9965C51.5521 100.354 51.9025 102.374 52.1245 101.709C52.323 101.136 53.2926 93.3683 53.5379 90.3312C53.643 89.1047 53.7715 87.6329 53.8299 87.0606C54.0051 85.4602 53.9701 84.6893 53.7014 83.7315C53.1758 81.8158 52.1011 80.4024 50.5592 79.5964C49.286 78.9189 48.0361 78.7203 46.6227 78.9539Z" fill="#C9A24D"/>
<path d="M129.827 82.6452C128.215 82.6685 127.327 82.7269 127.222 82.8204C127.129 82.8905 127.07 83.1124 127.094 83.311C127.117 83.5913 127.245 83.7549 127.713 84.0469C129.021 84.9113 128.939 85.2851 126.79 87.9951C125.75 89.315 125.493 89.6421 124.594 90.7985C123.134 92.6675 121.697 94.4664 121.58 94.5365C121.428 94.6299 121.428 93.1698 121.58 88.6609C121.697 84.993 121.744 84.7711 122.351 84.3506C123.145 83.7899 123.332 83.5913 123.332 83.2759C123.332 82.6802 123.309 82.6802 119.466 82.6802C115.518 82.6802 115.576 82.6685 115.646 83.4044C115.681 83.7432 115.763 83.8366 116.359 84.1403C116.732 84.3389 117.095 84.5842 117.165 84.701C117.235 84.8412 117.235 86.1611 117.153 88.6726C117.071 90.7401 116.966 94.0575 116.908 96.0433C116.791 100.097 116.803 100.062 115.903 100.459C115.132 100.797 114.922 101.603 115.541 101.814C115.681 101.86 117.352 101.872 119.256 101.837C122.993 101.779 123.099 101.755 123.099 101.136C123.099 100.774 122.947 100.622 122.491 100.505C121.849 100.354 121.323 99.2673 121.463 98.4262C121.545 97.9707 121.709 97.7371 124.033 94.8402C126.591 91.6512 127.444 90.5649 127.923 89.8991C128.192 89.5253 128.449 89.2216 128.507 89.2216C128.612 89.2216 128.612 89.3968 128.46 94.7117C128.378 97.3866 128.273 99.3724 128.192 99.606C128.11 99.863 127.876 100.143 127.537 100.377C126.988 100.762 126.802 101.218 127.058 101.533C127.234 101.744 134.067 101.907 134.429 101.72C134.92 101.463 134.558 100.435 133.974 100.435C133.565 100.435 133.051 99.828 132.969 99.2206C132.922 98.9168 132.969 95.5644 133.063 91.7681C133.261 83.9885 133.179 84.5608 134.207 83.9534C134.651 83.6965 134.721 83.603 134.721 83.2643C134.721 82.7036 134.382 82.5634 133.203 82.5868C132.689 82.6101 131.17 82.6335 129.827 82.6452Z" fill="#C9A24D"/>
<path d="M110.133 83.0423C108.509 83.1825 103.101 83.5913 99.2112 83.8483C97.3539 83.9768 95.6952 84.117 95.5433 84.152L95.2747 84.2104L95.3564 86.3948C95.4031 87.5979 95.4966 88.6726 95.555 88.8011C95.6601 88.988 95.7653 89.0113 96.4194 88.9529C96.8282 88.9062 97.2604 88.8244 97.3772 88.766C97.4941 88.7076 97.7394 88.2871 97.9029 87.8432C98.6154 86.0443 99.071 85.6589 100.73 85.5187L101.582 85.4486L101.653 86.313C101.758 87.5162 102.073 96.347 102.108 98.7066C102.131 100.634 102.131 100.657 101.839 100.961C101.676 101.136 101.36 101.347 101.139 101.44C100.917 101.533 100.695 101.674 100.648 101.755C100.508 101.977 100.543 102.468 100.718 102.713C100.87 102.923 100.928 102.923 103.078 102.725C104.292 102.62 105.951 102.48 106.78 102.433C108.381 102.328 108.614 102.234 108.614 101.72C108.614 101.358 108.346 101.09 107.867 100.973C107.68 100.926 107.388 100.739 107.213 100.564C106.944 100.307 106.874 100.108 106.816 99.4892C106.734 98.508 106.045 86.1378 106.045 85.5654V85.1099L107.329 85.1566L108.603 85.1916L109.082 85.6589C109.35 85.9159 109.759 86.5116 109.981 86.9788C110.215 87.4461 110.507 87.8783 110.612 87.9484C110.892 88.0885 111.535 88.0768 111.99 87.925C112.317 87.8082 112.352 87.7498 112.352 87.3176C112.341 86.3597 112.13 83.311 112.049 83.1124C111.967 82.8905 111.885 82.8905 110.133 83.0423Z" fill="#C9A24D"/>
<path d="M145.024 83.3694C143.342 83.7432 142.185 84.3974 140.854 85.7173C139.966 86.5934 139.627 87.0256 139.242 87.7615C138.272 89.6772 137.863 91.8615 137.957 94.6299C138.097 98.4497 139.359 100.798 141.928 102.071C143.552 102.865 146.215 103.344 148.096 103.18C149.217 103.087 151.483 102.585 151.67 102.398C151.869 102.188 152.336 98.438 152.173 98.2744C152.114 98.216 151.647 98.1459 151.145 98.1226L150.234 98.0759L149.731 98.9636C149.101 100.108 148.785 100.482 148.178 100.774C146.916 101.382 145.339 101.125 144.335 100.143C143.213 99.0571 142.688 97.3049 142.688 94.6533C142.688 92.5741 142.968 90.5883 143.505 88.953C144.393 86.2663 145.806 84.9931 147.722 85.1683C149.019 85.2851 149.661 85.7991 150.421 87.3176C150.677 87.8433 150.946 88.3105 151.016 88.3455C151.285 88.5091 152.523 88.4624 152.71 88.2871C152.815 88.1703 152.944 87.5863 153.06 86.5934C153.317 84.3857 153.329 84.4558 152.733 84.1988C152.453 84.0703 151.565 83.8133 150.771 83.6147C148.832 83.1241 146.566 83.0307 145.024 83.3694Z" fill="#C9A24D"/>
<path d="M27.5127 83.965C24.6158 84.222 21.3802 84.9346 19.3243 85.7756C14.3015 87.8081 12.0353 90.5064 12.0003 94.5013C11.9769 97.2814 13.2852 100.062 16.9764 105.049C19.0323 107.818 20.656 110.458 21.4736 112.327C23.1323 116.17 23.6463 119.721 24.4523 133.317C24.6509 136.518 24.8378 138.422 25.2232 141.202C25.7022 144.648 26.3446 146.435 28.1085 149.25C29.4868 151.458 30.6432 153 30.9353 153C31.1806 153 31.0521 152.451 29.7088 147.872C28.7743 144.66 28.6224 143.153 28.5173 135.595C28.4589 131.705 28.4939 129.696 28.6575 126.309C29.2182 114.651 28.2253 110.995 22.3497 103.005C19.8149 99.5592 18.4015 97.2464 18.0277 95.9381C17.8759 95.4358 17.8408 95.0036 17.8876 94.3612C18.0744 91.7213 19.5112 90.4714 24.0201 89.0346C27.5244 87.9132 30.5381 86.5933 32.3487 85.4135C33.3883 84.7243 33.4817 84.6075 33.1313 84.3972C32.4889 83.9767 29.6971 83.7665 27.5127 83.965Z" fill="#C9A24D"/>
<path d="M157.161 84.2805C157.068 84.5726 156.624 87.3994 156.542 88.182C156.484 88.7544 156.507 88.8595 156.694 88.9646C156.998 89.1165 157.979 89.245 158.247 89.1632C158.364 89.1282 158.761 88.6259 159.135 88.0418C159.988 86.7336 160.292 86.535 161.366 86.5467C161.81 86.5467 162.383 86.5817 162.639 86.6284C163.095 86.7102 163.107 86.7336 163.107 87.1774C163.095 87.6096 162.476 91.4176 162.219 92.5741C162.161 92.8427 161.798 94.8752 161.425 97.0946C160.735 101.043 160.572 101.884 160.397 102.141C160.268 102.316 159.602 102.655 159.369 102.655C158.808 102.655 158.469 103.765 158.995 103.881C159.38 103.963 162.126 104.454 164.368 104.839C166.588 105.213 166.704 105.19 166.763 104.442C166.798 103.998 166.775 103.963 166.249 103.694C165.945 103.543 165.595 103.274 165.466 103.099C165.244 102.795 165.233 102.725 165.373 101.58C165.455 100.914 165.723 99.1622 165.98 97.6904C166.226 96.2069 166.704 93.3684 167.032 91.3592C167.37 89.3618 167.674 87.6564 167.721 87.5863C167.838 87.3994 169.158 87.6447 169.823 87.9834C170.571 88.3572 170.898 89.0114 171.283 90.8803C171.33 91.1256 171.447 91.2191 171.786 91.3125C172.381 91.4877 173.269 91.4761 173.409 91.2892C173.596 91.0672 174.192 86.8854 174.064 86.7569C173.935 86.6284 174.192 86.6751 167.02 85.5304C161.448 84.6543 157.675 84.082 157.383 84.082C157.29 84.082 157.196 84.1754 157.161 84.2805Z" fill="#C9A24D"/>
<path d="M87.378 84.958C84.2709 85.4135 84.2358 85.4252 84.084 85.7056C83.8971 86.0794 84.119 86.4532 84.7264 86.7685C85.5675 87.2007 85.6492 87.4577 86.0113 90.6116C86.3618 93.5903 86.3618 93.5319 85.6609 93.5436C85.474 93.5436 84.1073 93.7538 82.6238 94.0108C81.152 94.2561 79.9022 94.4313 79.8671 94.3846C79.7503 94.2444 79.1662 88.4389 79.2363 88.1352C79.2831 87.9717 79.5167 87.6797 79.7737 87.4811C80.1358 87.1774 80.2292 87.0255 80.2292 86.7218C80.2292 85.9859 80.1825 85.9859 76.8067 86.5232C75.1246 86.7919 73.571 87.0489 73.3608 87.0839C72.9286 87.154 72.73 87.4928 72.8702 87.8782C72.9169 88.0067 73.2089 88.2404 73.5243 88.4039C73.9215 88.6025 74.1668 88.8244 74.2953 89.1164C74.4938 89.5136 75.2297 94.3963 75.5568 97.4567C75.6269 98.1576 75.7904 99.5943 75.9189 100.634C76.2343 103.321 76.2226 103.94 75.8371 104.407C75.6619 104.606 75.3816 104.839 75.1947 104.944C74.8092 105.143 74.6807 105.517 74.8443 105.961C74.9961 106.358 75.2297 106.358 76.795 106.042C77.4375 105.914 78.8742 105.645 79.9956 105.447C82.4253 105.038 82.4136 105.038 82.507 104.769C82.6355 104.372 82.3669 103.963 81.8178 103.729C81.5375 103.601 81.2104 103.367 81.1053 103.204C80.8834 102.865 80.0306 96.4872 80.1942 96.347C80.2993 96.2536 84.5162 95.5761 85.7427 95.4592C86.5019 95.3892 86.5253 95.3892 86.5837 95.6578C86.7122 96.2419 87.121 100.704 87.121 101.568V102.456L86.5837 102.982C86.1632 103.379 86.0347 103.578 86.0464 103.846C86.0581 104.232 86.2566 104.535 86.4552 104.465C86.537 104.43 88.1139 104.197 89.9829 103.928C91.8402 103.671 93.4405 103.402 93.5222 103.332C93.6157 103.25 93.6624 103.029 93.6391 102.783C93.604 102.398 93.5573 102.351 93.0667 102.188C92.4359 101.989 92.1906 101.802 91.9687 101.358C91.7935 101.019 90.2749 88.1235 90.2749 86.9788C90.2749 86.3948 90.2983 86.348 90.8707 85.8224C91.3613 85.3785 91.4547 85.215 91.4197 84.9463C91.3846 84.6192 91.3613 84.6076 90.6838 84.5842C90.2983 84.5842 88.8148 84.7477 87.378 84.958Z" fill="#C9A24D"/>
<path d="M60.0211 89.8757C59.0282 90.1677 58.1755 90.4597 58.1404 90.5298C58.0937 90.5999 58.0236 90.9737 57.9769 91.3708C57.825 92.8076 56.7854 99.1738 55.921 103.998C55.0566 108.892 54.8931 109.441 54.0988 110.224C53.5147 110.808 53.4563 111.17 53.8769 111.591C54.2039 111.918 53.8068 111.988 57.2176 110.995C58.2105 110.703 59.2385 110.399 59.4954 110.329C59.916 110.201 59.9627 110.142 59.9977 109.78C60.0444 109.325 59.8108 109.079 59.3436 109.079C58.8997 109.079 58.2689 108.729 58.0937 108.367C58.0003 108.192 57.9185 107.736 57.9185 107.362C57.9185 106.568 58.2105 104.652 58.3624 104.5C58.4091 104.454 58.7595 104.302 59.1333 104.173C59.9276 103.893 63.9576 102.772 64.1795 102.772C64.4132 102.772 64.7519 103.332 65.3827 104.734C66.2354 106.615 66.2354 106.533 65.5229 107.187C64.9038 107.759 64.7986 108.051 65.0907 108.449C65.2542 108.67 65.2775 108.67 66.5274 108.332C67.2166 108.145 68.9454 107.701 70.3588 107.339C72.7417 106.731 72.9286 106.661 72.9637 106.404C73.0454 105.844 72.8936 105.587 72.3679 105.447C71.1531 105.119 70.756 104.699 69.4944 102.363C69.2141 101.849 68.6767 100.926 68.3146 100.319C67.9525 99.7111 67.3918 98.7299 67.0881 98.1575C66.7727 97.5735 65.9901 96.2068 65.336 95.1205C64.6818 94.0224 63.6656 92.282 63.0698 91.2307C62.4624 90.1911 61.9485 89.3383 61.9017 89.35C61.8667 89.35 61.014 89.5953 60.0211 89.8757ZM60.2664 95.2373C60.465 95.6227 60.9906 96.5455 61.4228 97.2815C62.5442 99.1971 63.4319 100.926 63.3502 101.008C63.245 101.101 58.5726 102.421 58.5259 102.363C58.4792 102.328 59.6473 94.9686 59.7407 94.6065C59.8108 94.3962 59.8108 94.4079 60.2664 95.2373Z" fill="#C9A24D"/>
<path d="M46.8798 91.8498C46.6228 91.9315 45.8051 92.1768 45.0692 92.3754C44.3333 92.574 42.8031 92.9945 41.6817 93.3099C37.0443 94.6065 36.1215 94.8518 34.4511 95.2373C33.4816 95.4475 32.5822 95.6928 32.4537 95.7629C31.9864 96.0082 32.2668 96.6273 32.8975 96.7558C34.1474 97.0128 34.2993 97.1413 34.895 98.4729C36.6121 102.281 37.8153 110.668 37.1845 114.534C36.7757 117.046 36.1566 118.237 34.2876 120.071L33.1428 121.216L33.0144 122.828C32.7574 126.367 32.8975 150.792 33.1779 150.968C33.3648 151.084 33.7269 150.652 33.9021 150.091C34.1941 149.204 34.2642 148.538 34.9651 140.618C35.1286 138.784 35.3389 136.53 35.4323 135.595C35.6543 133.446 35.8996 130.572 36.1332 127.594C36.4836 123.12 36.764 122.139 37.9438 121.076C38.8198 120.293 39.5441 119.978 46.3541 117.525C48.1296 116.882 49.3211 116.754 50.3373 117.081C52.0077 117.618 53.5613 118.903 54.7995 120.76C55.4303 121.718 55.5821 121.87 55.8858 121.905C56.6101 121.975 56.5984 121.823 55.769 118.926C55.3602 117.466 54.9514 115.994 54.8696 115.679C54.6126 114.593 54.5308 114.511 53.5964 114.347C52.7086 114.207 52.0311 113.915 51.704 113.565C51.1317 112.922 50.6294 111.38 48.8772 104.816C47.3704 99.1271 46.4476 95.284 46.4359 94.5598L46.4125 93.8589L47.2652 93.088C47.9194 92.4922 48.1063 92.2469 48.1063 91.9899C48.1063 91.7096 48.0595 91.6746 47.7325 91.6862C47.5222 91.6862 47.1367 91.768 46.8798 91.8498ZM41.7635 96.639C42.0555 97.6903 43.2002 101.942 43.9595 104.874C44.2398 105.937 44.7888 108.04 45.186 109.547C46.3658 114.055 46.4709 114.476 46.4709 114.675C46.4709 114.873 45.478 115.282 43.6675 115.843C43.2469 115.971 41.9737 116.368 40.829 116.73C39.6842 117.092 38.7147 117.373 38.6797 117.338C38.6446 117.303 38.7614 116.52 38.9366 115.597C39.3688 113.366 39.4623 110.166 39.1703 107.678C38.7965 104.419 38.2708 101.603 37.4648 98.6949C37.2078 97.7721 37.021 96.9427 37.056 96.8726C37.0794 96.7908 37.3363 96.674 37.6167 96.5923C37.8853 96.5222 38.8082 96.2769 39.6375 96.0549C40.4785 95.833 41.2378 95.6695 41.3313 95.6811C41.4364 95.6928 41.5999 96.0549 41.7635 96.639Z" fill="#C9A24D"/>
<path d="M177.123 92.3871C177.077 92.4572 177.042 92.6908 177.03 92.9128C177.018 93.2399 177.112 93.4151 177.532 93.8356C177.918 94.2327 178.034 94.4313 178.023 94.7117C178.011 95.1439 177.544 97.0011 176.586 100.377C175.453 104.372 175.371 104.524 174.238 104.839C173.701 104.991 173.514 105.096 173.432 105.318C173.234 105.832 173.549 106.112 174.577 106.323C175.36 106.498 176.925 106.907 179.67 107.666C180.16 107.794 180.394 107.818 180.546 107.724C180.896 107.502 180.85 107.035 180.406 106.393C179.95 105.727 179.88 105.26 180.172 104.827C180.336 104.559 182.029 103.262 184.366 101.603C184.95 101.183 185.627 100.681 185.872 100.47C186.76 99.7345 186.784 99.571 185.382 104.29C184.809 106.217 184.751 106.381 184.424 106.731C184.132 107.035 183.501 107.327 183.151 107.327C182.894 107.327 182.73 107.713 182.812 108.11C182.859 108.355 183.186 108.46 187.146 109.547L189.821 110.271L190.101 110.002C190.522 109.605 190.451 109.301 189.797 108.694C189.096 108.04 189.061 107.818 189.517 106.159C189.68 105.552 190.078 104.021 190.393 102.772C191.164 99.7812 191.596 98.4029 191.888 97.994C192.028 97.7955 192.402 97.5385 192.776 97.3866C193.232 97.1997 193.442 97.0362 193.489 96.8493C193.594 96.4405 193.477 96.2652 193.045 96.1718C192.834 96.1251 191.421 95.7513 189.914 95.3424C187.006 94.5481 186.597 94.4897 186.48 94.7818C186.293 95.2607 186.41 95.7162 186.819 96.1134C187.543 96.8143 187.391 97.2231 186.036 98.1693C185.499 98.543 184.389 99.349 183.548 99.9681C181.492 101.487 180.92 101.872 180.838 101.79C180.803 101.755 180.99 100.973 181.27 100.062C182.672 95.3541 182.684 95.3074 183.419 95.0621C183.945 94.8869 184.214 94.5715 184.167 94.1627C184.132 93.8356 184.132 93.8356 181.095 93.053C178.07 92.282 177.264 92.1418 177.123 92.3871Z" fill="#C9A24D"/>
<path d="M201.665 93.0179C201.315 93.3684 201.327 93.6604 201.7 94.3963C201.992 94.992 202.051 95.2023 201.992 95.5878C201.899 96.1485 195.93 108.075 195.346 108.869C194.937 109.43 194.47 109.663 193.746 109.663C193.325 109.663 193.068 109.944 193.068 110.411C193.068 110.75 193.138 110.832 193.629 111.089C193.933 111.252 194.622 111.579 195.171 111.801C195.72 112.023 196.561 112.397 197.04 112.619C200.042 113.997 200.112 114.02 200.31 113.647C200.509 113.261 200.439 112.899 200.065 112.35C199.574 111.638 199.645 111.322 200.766 109.091C201.257 108.086 201.922 106.708 202.238 106.007C202.553 105.318 202.833 104.757 202.88 104.757C202.915 104.769 203.231 104.944 203.581 105.155C204.714 105.832 205.216 106.778 205.216 108.273C205.216 108.811 205.065 110.75 204.749 114.324C204.679 115.06 204.667 115.703 204.714 115.749C204.924 115.948 210.134 118.541 210.344 118.541C210.636 118.541 210.823 118.296 210.905 117.805C210.963 117.443 210.917 117.361 210.59 117.128C209.83 116.567 209.83 116.567 209.83 112.116C209.83 108.273 209.819 108.051 209.573 107.421C209.235 106.51 208.721 105.832 208.008 105.341C207.436 104.956 207.424 104.933 207.693 104.827C209.001 104.314 210.45 103.484 211.571 102.608C213.019 101.463 213.79 101.136 214.491 101.37C215.04 101.545 215.262 101.837 215.496 102.678C215.659 103.286 215.753 103.426 216.091 103.613C216.699 103.94 217.295 103.893 217.575 103.496C217.914 103.029 219 100.926 219 100.751C219 100.062 215.963 98.7767 214.328 98.765C212.938 98.765 211.863 99.314 209.655 101.171C207.085 103.321 205.59 103.846 203.955 103.169L203.569 103.005L204.819 100.587C206.653 97.0245 206.677 96.9895 207.74 96.861C208.429 96.7676 208.838 96.5339 208.838 96.2302C208.838 95.9148 208.639 95.8097 206.092 94.6766C204.878 94.1276 203.464 93.4969 202.962 93.2632C201.922 92.7843 201.911 92.7843 201.665 93.0179Z" fill="#C9A24D"/>
<path d="M165.618 113.635C164.812 113.682 164.006 113.787 163.807 113.857C162.674 114.312 162.113 115.107 162.113 116.275C162.113 117.221 162.569 117.957 163.363 118.331C163.679 118.483 163.947 118.611 163.971 118.623C164.006 118.646 163.889 118.81 163.725 118.985C163.316 119.429 162.148 121.169 162.055 121.473C161.997 121.636 162.032 121.765 162.125 121.823C162.312 121.94 163.095 121.964 163.457 121.858C163.69 121.8 164.379 120.901 165.139 119.662C165.571 118.973 165.583 118.962 166.797 118.833L167.452 118.763L167.522 120.176C167.557 121.017 167.638 121.66 167.72 121.753C167.814 121.858 168.071 121.928 168.363 121.928C169.309 121.928 169.239 122.256 169.239 117.793C169.239 114.838 169.204 113.763 169.099 113.658C168.947 113.506 168.059 113.506 165.618 113.635ZM167.487 116.205V117.478L167.066 117.56C166.4 117.688 164.66 117.548 164.251 117.338C163.749 117.069 163.562 116.497 163.795 115.936C164.099 115.2 164.765 114.955 166.529 114.932L167.487 114.92V116.205Z" fill="#C9A24D"/>
<path d="M141.648 113.892C140.41 114.044 139.335 114.815 138.786 115.948C138.483 116.567 138.459 116.719 138.459 118.074C138.459 119.44 138.483 119.58 138.786 120.188C139.405 121.438 140.527 122.162 141.975 122.255C144.066 122.384 145.596 121.228 146.064 119.16C146.402 117.606 146.087 115.948 145.246 114.966C144.498 114.09 143.178 113.693 141.648 113.892ZM143.354 115.422C143.681 115.597 143.926 115.878 144.148 116.31C144.428 116.847 144.475 117.069 144.475 117.887C144.475 118.401 144.417 119.043 144.346 119.3C144.171 119.943 143.272 120.819 142.699 120.924C141.601 121.122 140.41 120.281 140.165 119.125C139.803 117.431 140.317 115.772 141.368 115.317C141.94 115.072 142.828 115.118 143.354 115.422Z" fill="#C9A24D"/>
<path d="M159.007 113.834C158.89 113.915 158.025 115.165 156.063 118.074C155.654 118.681 155.257 119.23 155.198 119.3C155.117 119.382 155.093 118.845 155.117 117.723C155.14 116.789 155.152 115.539 155.128 114.943L155.105 113.869H154.533C153.516 113.869 153.587 113.682 153.598 116.602C153.61 118.015 153.645 119.791 153.692 120.527L153.762 121.87L154.369 121.905C154.965 121.94 154.977 121.94 155.42 121.379C155.666 121.064 156.553 119.768 157.383 118.483L158.901 116.17L158.96 119.02L159.018 121.87L159.754 121.905L160.478 121.94L160.455 117.875L160.42 113.81L159.777 113.775C159.427 113.763 159.077 113.787 159.007 113.834Z" fill="#C9A24D"/>
<path d="M148.038 113.974L147.688 114.044V117.945V121.858L148.073 121.952C148.272 122.01 148.622 122.01 148.832 121.952L149.206 121.858L149.241 118.564L149.264 115.27H150.678C151.449 115.27 152.185 115.212 152.313 115.153C152.558 115.013 152.617 114.464 152.418 114.091C152.302 113.88 152.161 113.869 150.339 113.88C149.264 113.892 148.237 113.927 148.038 113.974Z" fill="#C9A24D"/>
<path d="M108.789 114.114C107.084 114.266 105.927 115.13 105.927 116.252C105.927 116.625 105.951 116.66 106.395 116.73C106.92 116.824 107.329 116.719 107.329 116.509C107.329 116.24 108.135 115.516 108.591 115.399C109.584 115.118 110.623 115.364 110.834 115.913C110.904 116.088 110.95 116.45 110.95 116.73C110.95 117.338 111.02 117.303 109.198 117.548C106.71 117.887 105.974 118.272 105.635 119.382C105.414 120.141 105.414 120.538 105.635 121.087C105.998 121.94 106.57 122.349 107.61 122.466C108.486 122.571 109.525 122.337 110.32 121.858L110.962 121.473L111.149 121.882C111.347 122.279 111.359 122.291 111.978 122.256L112.621 122.221L112.597 119.359C112.586 117.782 112.551 116.24 112.504 115.936C112.422 115.27 112.083 114.721 111.569 114.429C111.114 114.161 109.876 114.02 108.789 114.114ZM110.904 119.09C110.787 120.106 110.658 120.328 109.934 120.76C109.373 121.111 109.163 121.169 108.544 121.169C107.586 121.169 107.142 120.877 107.166 120.258C107.177 119.732 107.458 119.3 107.937 119.055C108.334 118.845 110.086 118.448 110.647 118.436L110.974 118.424L110.904 119.09Z" fill="#C9A24D"/>
<path d="M122.9 114.266C122.129 114.628 121.288 115.469 120.973 116.181C120.669 116.882 120.564 118.506 120.762 119.37C121.066 120.702 121.732 121.52 122.947 122.069C123.729 122.431 125.376 122.442 126.147 122.08C127.362 121.531 128.098 120.492 128.355 118.961C128.624 117.49 128.11 115.562 127.28 114.861C126.509 114.219 126.042 114.055 124.734 114.02C123.624 113.974 123.449 113.997 122.9 114.266ZM125.388 115.375C126.299 115.796 126.72 116.66 126.72 118.155C126.72 120.059 125.96 121.029 124.477 121.029C123.215 121.029 122.468 120.223 122.328 118.693C122.199 117.338 122.713 115.901 123.484 115.48C124.15 115.13 124.769 115.095 125.388 115.375Z" fill="#C9A24D"/>
<path d="M130.294 114.125C130.259 114.207 130.212 115.586 130.177 117.186C130.119 119.102 130.049 120.2 129.955 120.398C129.862 120.597 129.675 120.725 129.348 120.807C128.787 120.936 128.706 121.029 128.706 121.613C128.706 121.987 128.752 122.069 129.033 122.174C129.43 122.337 130.504 122.139 130.925 121.835C131.567 121.368 131.661 120.936 131.754 118.074C131.801 116.625 131.848 115.445 131.848 115.434C131.894 115.364 134.523 115.282 134.838 115.34L135.247 115.41V118.669C135.247 122.372 135.189 122.162 136.275 122.069L136.882 122.022L136.859 118.039L136.824 114.044L133.577 114.009C131.042 113.985 130.329 114.009 130.294 114.125Z" fill="#C9A24D"/>
<path d="M73.8633 114.266C73.6063 114.348 73.2326 114.499 73.034 114.605C72.5434 114.861 71.7257 115.773 71.4687 116.357C71.165 117.046 70.9664 118.366 71.0599 119.125C71.2468 120.597 71.8659 121.601 73.0106 122.232C73.5713 122.536 73.7232 122.571 74.7394 122.571C75.6505 122.571 75.9542 122.524 76.4682 122.291C77.426 121.858 78.232 120.749 78.2437 119.873C78.2437 119.452 78.0919 119.359 77.4144 119.359C76.9822 119.359 76.9588 119.382 76.6668 120.001C76.1879 120.994 75.3118 121.473 74.4007 121.228C73.1391 120.889 72.5551 119.569 72.8704 117.723C73.069 116.532 73.5479 115.866 74.3656 115.586C75.3819 115.259 76.2463 115.609 76.7369 116.567C76.9588 117.011 76.9822 117.022 77.4027 116.952C78.0451 116.836 78.2437 116.695 78.2437 116.368C78.2437 115.551 77.356 114.581 76.328 114.277C75.6272 114.067 74.5058 114.067 73.8633 114.266Z" fill="#C9A24D"/>
<path d="M88.6046 114.266C87.0861 114.815 86.2334 116.111 86.1049 118.097C86.0465 118.95 86.0815 119.242 86.3035 119.943C86.9109 121.847 88.6513 122.875 90.6371 122.513C91.5833 122.337 92.1673 122.034 92.7981 121.391C93.5807 120.585 93.826 119.814 93.8377 118.191C93.8377 116.894 93.826 116.812 93.4522 116.053C93.02 115.177 92.3659 114.593 91.4548 114.277C90.8123 114.055 89.212 114.055 88.6046 114.266ZM90.9759 115.597C91.887 116.053 92.3893 117.408 92.1673 118.81C92.0155 119.732 91.8987 120.036 91.4898 120.515C90.7656 121.379 89.3522 121.485 88.5462 120.725C87.6117 119.849 87.4248 117.466 88.2075 116.298C88.7798 115.469 90.0647 115.13 90.9759 115.597Z" fill="#C9A24D"/>
<path d="M113.637 114.277C113.474 114.476 113.579 115.282 113.789 115.41C113.871 115.457 114.385 115.504 114.945 115.504H115.962L116.043 115.936C116.09 116.181 116.102 117.314 116.067 118.483C116.032 119.639 116.032 120.947 116.079 121.403L116.149 122.22H116.849H117.55L117.609 118.845L117.667 115.469L118.683 115.492C120.015 115.527 120.202 115.422 120.155 114.71L120.12 114.161L116.955 114.125C114.245 114.102 113.766 114.125 113.637 114.277Z" fill="#C9A24D"/>
<path d="M79.1547 114.347C78.9211 114.476 78.8861 114.861 79.0613 115.317C79.1664 115.609 79.2015 115.621 80.2878 115.621H81.3975V119.008C81.3975 122.851 81.3274 122.618 82.367 122.442L82.9744 122.337L83.0095 118.973L83.0329 115.621H84.1192C84.7032 115.621 85.2522 115.574 85.3223 115.527C85.5326 115.399 85.6377 114.733 85.4859 114.464C85.3691 114.231 85.2756 114.219 82.3554 114.219C80.5331 114.219 79.2716 114.277 79.1547 114.347Z" fill="#C9A24D"/>
<path d="M95.3797 114.301C95.3446 114.359 95.3096 116.181 95.2862 118.366L95.2395 122.337L95.9754 122.372L96.6996 122.407V119.534C96.6996 117.957 96.7347 116.672 96.7931 116.672C96.8398 116.672 97.307 117.945 97.8327 119.499L98.7905 122.337L99.4213 122.372C100.134 122.407 100.216 122.349 100.473 121.578C100.566 121.286 100.905 120.398 101.232 119.592C101.547 118.786 101.933 117.758 102.085 117.314L102.365 116.497L102.4 119.452L102.423 122.407L103.159 122.372L103.883 122.337L103.965 118.716C104 116.719 104 114.908 103.954 114.686L103.872 114.277H102.844H101.816L100.975 116.555C100.508 117.805 100.029 119.113 99.9119 119.44C99.7834 119.779 99.6549 120.06 99.6082 120.06C99.5615 120.06 99.1527 118.891 98.6854 117.455C98.2182 116.03 97.7626 114.721 97.6808 114.534C97.5173 114.231 97.4823 114.219 96.466 114.219C95.8936 114.219 95.403 114.254 95.3797 114.301Z" fill="#C9A24D"/>
</svg>
